<svg version="1.1" id="Layer_1" xmlns="http://www.w3.org/2000/svg" xmlns:xlink="http://www.w3.org/1999/xlink" x="0px" y="0px"
	 width="100%" viewBox="0 0 1024 1024" enable-background="new 0 0 1024 1024" xml:space="preserve">
<path fill="#EDECEC" opacity="1.000000" stroke="none" 
	d="
M452.000000,1025.000000 
	C301.333344,1025.000000 151.166672,1025.000000 1.000000,1025.000000 
	C1.000000,683.666687 1.000000,342.333344 1.000000,1.000000 
	C342.333344,1.000000 683.666687,1.000000 1025.000000,1.000000 
	C1025.000000,342.333344 1025.000000,683.666687 1025.000000,1025.000000 
	C834.166687,1025.000000 643.333313,1025.000000 452.000000,1025.000000 
M375.982849,549.007690 
	C375.982849,549.007690 375.919006,549.061462 376.208038,549.569336 
	C376.701385,549.849304 377.194733,550.129272 377.697479,550.458191 
	C377.697479,550.458191 377.695770,550.507996 378.057861,551.026306 
	C380.658234,552.436890 383.258606,553.847473 385.969055,555.096558 
	C385.969055,555.096558 385.821289,555.224487 386.266968,555.759277 
	C401.825470,561.045349 417.383942,566.331421 433.624237,572.049072 
	C437.128448,573.022949 440.632629,573.996887 444.626129,575.409546 
	C445.239471,575.919861 445.780792,576.576294 446.476624,576.919189 
	C466.273987,586.673584 486.235962,596.110596 505.799744,606.311584 
	C511.158478,609.105713 514.880859,608.504700 519.931946,606.052246 
	C542.626831,595.033691 565.491272,584.356262 588.436035,573.865356 
	C595.775391,570.509644 603.550293,568.106689 611.880432,565.166931 
	C613.305298,564.625427 614.730103,564.083862 616.888977,563.545105 
	C625.081848,560.861755 633.496704,558.704224 641.411133,555.361633 
	C651.248230,551.207031 658.552490,544.236633 658.992126,532.706116 
	C659.333252,523.758179 658.891357,514.780457 658.924133,504.964050 
	C658.878418,502.350220 658.832703,499.736389 658.905334,496.251617 
	C658.861084,494.498047 658.816833,492.744446 658.906982,490.064056 
	C658.861389,474.375000 658.815796,458.685944 658.899841,442.316864 
	C658.861633,441.858643 658.823425,441.400391 658.925232,440.231079 
	C658.882996,439.510956 658.840759,438.790802 658.932434,437.133209 
	C658.986389,429.163605 659.083374,421.193970 659.082214,413.224365 
	C659.081055,405.112579 651.807556,395.830780 644.139648,394.276642 
	C644.139648,409.565063 644.139648,424.808594 644.015686,440.975494 
	C644.062378,464.922394 644.109131,488.869263 644.031921,513.687927 
	C643.651978,518.387695 644.237915,523.627563 639.375305,526.455750 
	C636.435303,528.165710 633.042236,529.240601 629.727112,530.135742 
	C618.204895,533.247009 606.627869,536.155029 594.309570,539.170959 
	C593.859436,539.386353 593.409302,539.601746 592.274353,539.732849 
	C588.931396,540.663635 585.588501,541.594421 582.204224,541.706726 
	C582.382324,540.119629 582.560425,538.532593 583.380127,536.579956 
	C597.366211,532.010559 611.295593,527.256042 625.362793,522.951660 
	C632.147766,520.875549 634.926514,518.857300 634.965088,513.410645 
	C635.041382,502.636536 634.867188,491.860687 634.967834,480.151306 
	C634.925049,468.107727 634.882202,456.064117 635.005676,443.092072 
	C634.949280,429.082672 634.892883,415.073273 635.006653,400.131897 
	C635.006653,389.385498 635.006653,378.639099 635.006653,367.566498 
	C633.164124,367.566498 632.024597,367.482239 630.900513,367.578674 
	C594.471191,370.703644 562.955811,385.174133 535.546570,409.027161 
	C532.823303,411.397095 530.461975,414.182953 527.385803,416.956879 
	C527.193237,417.269318 527.000610,417.581726 526.888550,417.814758 
	C526.888550,417.814758 526.795532,417.750427 526.174744,417.898102 
	C525.659424,418.554718 525.144165,419.211304 524.091736,420.010223 
	C523.531677,420.692932 522.971619,421.375641 521.803528,422.465057 
	C521.625610,423.615570 521.447693,424.766083 521.098877,426.845215 
	C521.161987,431.560211 521.225159,436.275177 521.105347,441.914368 
	C521.200073,449.951416 521.294739,457.988434 521.194946,466.940460 
	C521.269470,474.312622 521.343933,481.684814 521.230103,489.961456 
	C519.349915,508.143555 523.966125,511.279633 541.998352,509.981873 
	C549.133240,510.008026 556.270081,509.945099 563.402161,510.098999 
	C566.824219,510.172821 570.186279,510.907288 570.943848,515.041138 
	C572.361877,522.777954 569.563599,526.282593 561.676758,526.518799 
	C558.295898,526.620056 555.786804,528.163513 555.928650,531.293518 
	C556.027283,533.470764 557.988586,535.747009 559.574463,537.585022 
	C560.226440,538.340576 562.072205,538.153625 563.384888,538.235291 
	C567.233459,538.474548 570.087891,539.980530 570.995300,544.815369 
	C570.917114,552.644531 568.620300,555.012939 560.986267,555.020447 
	C553.827087,555.027466 546.667114,554.891479 539.508972,554.966919 
	C529.342590,555.074097 521.593933,562.925842 521.488586,573.028076 
	C521.453857,576.354370 521.322815,579.679565 520.997559,583.384460 
	C520.997559,583.384460 520.932007,583.827454 520.267761,584.237610 
	C519.435669,584.758972 518.665833,585.459412 517.761780,585.773804 
	C509.546509,588.630432 505.085449,585.475281 505.046539,576.888611 
	C505.021118,571.281677 504.928711,565.674988 505.028992,559.134521 
	C504.970978,542.771423 504.912964,526.408386 505.030579,509.120453 
	C504.981720,504.728973 504.932861,500.337463 505.038513,495.026550 
	C504.992523,483.367340 504.946533,471.708130 505.065552,459.114594 
	C505.031097,450.748779 504.996613,442.382965 505.151917,433.242523 
	C504.657898,429.556458 504.163910,425.870361 503.569336,421.618652 
	C502.848633,421.032776 502.127930,420.446899 501.175995,419.247314 
	C500.523560,418.743134 499.871124,418.238953 499.120392,417.803864 
	C499.120392,417.803864 499.207397,417.886719 499.082214,417.303101 
	C498.754486,417.088196 498.426758,416.873291 497.998169,416.288330 
	C497.851501,416.051239 497.639038,415.924042 497.207031,415.329468 
	C496.805634,414.926849 496.404266,414.524231 495.718231,413.616791 
	C495.130219,413.142700 494.542206,412.668640 493.635986,411.843781 
	C493.635986,411.843781 493.170959,411.754089 493.133392,411.868286 
	C493.133392,411.868286 493.236298,411.806122 493.084991,411.202423 
	C492.439331,410.733551 491.793671,410.264709 491.075989,409.868530 
	C491.075989,409.868530 491.161224,409.925110 491.005035,409.373260 
	C490.690338,409.165039 490.375641,408.956848 489.839722,408.142151 
	C473.980957,394.614716 456.496979,383.588715 436.700714,377.098450 
	C423.650330,372.819855 409.961914,370.474457 396.537048,367.359039 
	C392.765350,366.483765 390.568756,367.443237 390.910767,372.111267 
	C391.347870,378.077911 391.160645,384.090271 391.065033,390.994080 
	C391.149689,399.657227 391.234344,408.320374 391.143494,417.894989 
	C391.228973,421.609741 391.314453,425.324463 391.216797,429.951050 
	C391.286224,435.003204 391.355652,440.055359 391.245209,446.007294 
	C391.299988,468.375916 391.354767,490.744537 391.225433,513.841980 
	C391.257019,519.223145 394.817780,521.312012 399.325653,522.480835 
	C405.124084,523.984192 411.013611,525.192078 416.718689,526.988403 
	C430.863800,531.442322 445.025726,535.954529 455.046844,546.119507 
	C447.705383,543.958313 440.363922,541.797119 432.411957,539.221191 
	C431.926270,539.159668 431.440582,539.098206 430.377502,538.622681 
	C426.608887,537.607117 422.840271,536.591553 418.419647,535.211914 
	C417.925873,535.161133 417.432129,535.110352 416.316956,534.682800 
	C409.879272,533.145996 403.458801,531.532349 397.000214,530.089233 
	C385.431091,527.504333 382.630524,524.355530 381.992126,511.885132 
	C381.931183,485.279480 381.870209,458.673859 381.940094,431.127380 
	C381.940094,418.782623 381.940094,406.437897 381.940094,393.021118 
	C373.738525,398.199463 367.662994,403.728668 367.116119,412.563965 
	C366.511688,422.329102 367.132446,432.170074 367.082855,442.908783 
	C367.143738,460.899567 367.204620,478.890381 367.125214,497.823669 
	C367.085938,508.778778 367.005371,519.733948 367.024048,530.689026 
	C367.034027,536.539734 368.945923,541.718201 372.990753,546.011841 
	C372.990753,546.011841 372.956360,546.023987 373.151093,546.584839 
	C373.745636,547.088928 374.340149,547.593079 374.980652,548.029175 
	C374.980652,548.029175 374.899689,548.042908 375.080353,548.544250 
	C375.372986,548.725342 375.665649,548.906372 375.982849,549.007690 
M675.909851,669.087585 
	C675.909851,669.087585 675.830444,669.153320 676.108948,669.776489 
	C677.588135,670.502869 679.008301,671.407410 680.557922,671.921570 
	C684.823608,673.337036 689.389526,674.101074 693.346802,676.094971 
	C695.594543,677.227478 698.242126,680.278259 698.224243,682.444702 
	C698.205994,684.680786 695.630249,687.895020 693.373169,688.921387 
	C687.247681,691.706665 681.275452,690.356201 676.365784,685.658447 
	C674.185913,683.572693 672.447693,682.080688 669.885559,685.159302 
	C667.360168,688.193848 669.231995,689.937805 671.387268,691.769165 
	C678.417725,697.743103 686.594666,698.043579 694.958679,696.052917 
	C702.805908,694.185181 706.062866,689.681335 706.257507,681.708435 
	C706.394592,676.093933 702.863586,671.827820 695.494690,669.026367 
	C695.133545,668.972839 694.772400,668.919312 693.881531,668.355530 
	C690.933594,667.368713 687.998596,666.341309 685.035217,665.403320 
	C677.814514,663.117798 676.675232,661.227600 678.979309,653.503662 
	C679.676819,652.985413 680.374268,652.467163 681.562256,652.185669 
	C682.510559,651.741943 683.458801,651.298218 685.358154,650.875427 
	C689.240112,651.846252 694.016785,651.739990 696.791016,654.044434 
	C700.795166,657.370483 702.913696,656.564697 705.773376,652.990051 
	C703.008240,647.148376 697.984619,644.971497 691.985291,644.084045 
	C682.282471,642.648926 674.682312,645.715027 670.628784,653.028809 
	C667.880798,660.438965 670.038025,667.049927 675.909851,669.087585 
M447.605164,658.194092 
	C447.605164,658.194092 447.642761,658.391113 447.128906,658.866882 
	C442.010376,670.944458 436.891815,683.021973 431.594757,695.520691 
	C436.059357,696.012207 440.123993,697.547302 441.078766,692.899963 
	C442.761810,684.708008 447.982483,683.430603 454.999634,684.372009 
	C457.124817,684.657104 459.369720,684.694946 461.476868,684.345703 
	C467.277710,683.384460 469.882812,686.248169 471.428436,691.436584 
	C473.062073,696.920654 474.935699,697.515869 481.055328,695.217651 
	C478.939270,689.825256 476.846802,684.427185 474.704803,679.048767 
	C470.519409,668.539490 466.446777,657.980591 461.964996,647.598816 
	C461.226715,645.888550 458.676392,644.027222 456.903198,643.965393 
	C455.205627,643.906250 452.739014,645.722473 451.833740,647.381775 
	C450.025879,650.695618 449.055267,654.466125 447.605164,658.194092 
M387.245697,675.419800 
	C389.562561,680.940613 391.716187,686.539551 394.295410,691.934937 
	C395.073273,693.562073 397.199615,695.825745 398.411499,695.657715 
	C400.139740,695.418091 402.284729,693.511658 403.049591,691.784729 
	C406.886475,683.121887 410.315582,674.278992 413.932800,665.517883 
	C414.442169,664.284180 415.198517,663.152405 415.840515,661.973450 
	C416.915192,664.046021 417.065796,665.796692 417.083160,667.548706 
	C417.160645,675.371094 417.170135,683.194214 417.270386,691.016235 
	C417.303375,693.591187 416.698853,696.481995 421.014221,696.486389 
	C425.150848,696.490601 424.922241,693.951660 424.904816,691.169617 
	C424.817108,677.188049 424.817352,663.205750 424.662659,649.225037 
	C424.639923,647.170288 425.755615,643.790100 422.028015,643.977173 
	C418.856201,644.136414 414.973480,642.281799 413.117584,647.659546 
	C409.432617,658.337585 404.877472,668.716187 400.642670,679.202637 
	C400.120026,680.496826 399.357971,681.694275 398.229858,683.846802 
	C397.050842,681.135437 396.267700,679.359314 395.504333,677.574829 
	C391.186523,667.481262 386.711426,657.450684 382.632507,647.261414 
	C380.808319,642.704590 377.220490,643.952759 374.265564,644.398987 
	C373.155121,644.566650 371.729828,647.530640 371.705505,649.237671 
	C371.511108,662.883118 371.527832,676.533936 371.672211,690.180969 
	C371.742615,696.837646 372.331940,697.126892 379.684265,695.342712 
	C379.684265,684.204773 379.684265,672.889038 379.684265,661.573242 
	C380.090759,661.494507 380.497253,661.415833 380.903748,661.337097 
	C382.934326,665.790649 384.964905,670.244141 387.245697,675.419800 
M573.106140,694.500610 
	C583.657654,698.751587 593.553772,697.995911 602.558044,690.604492 
	C611.528259,683.241089 611.424438,672.931213 609.932312,663.181946 
	C607.357849,646.361633 585.040283,638.159973 570.328491,647.369263 
	C554.340759,657.377197 555.065430,686.468628 573.106140,694.500610 
M330.412933,661.315552 
	C330.453430,657.652893 330.533752,653.990234 330.525696,650.327637 
	C330.511322,643.799866 330.238678,643.596069 322.456451,644.470276 
	C322.456451,646.479065 322.451172,648.584778 322.457367,650.690491 
	C322.487244,660.846497 322.523041,671.002502 322.550568,681.158508 
	C322.560944,684.987488 322.664673,688.820435 322.523712,692.644165 
	C322.396667,696.089355 324.698792,696.191345 327.114319,696.410889 
	C329.924164,696.666260 330.459259,695.130188 330.385071,692.744690 
	C330.276367,689.251770 329.650452,685.540894 330.596222,682.319580 
	C331.431274,679.475220 333.965240,677.019897 336.188751,674.841675 
	C336.445343,674.590332 339.882690,676.919434 341.211639,678.564087 
	C344.236877,682.308044 346.882385,686.360229 349.656189,690.305542 
	C353.733826,696.105347 356.022736,696.966370 362.768890,694.972900 
	C362.256012,694.096985 361.858582,693.226807 361.294006,692.483704 
	C355.759521,685.199219 350.302399,677.851562 344.584442,670.713196 
	C342.639618,668.285217 342.482544,666.714661 344.762756,664.411865 
	C349.676880,659.449036 354.325867,654.221558 359.024567,649.048950 
	C360.131775,647.830139 361.006104,646.399658 362.164185,644.826660 
	C356.213318,643.240967 351.980652,644.184875 348.838867,648.888733 
	C347.279114,651.224060 345.267883,653.271851 343.360260,655.357788 
	C339.637299,659.428833 335.843597,663.435181 331.046356,668.574890 
	C330.719635,665.390137 330.559296,663.826843 330.412933,661.315552 
M641.706421,650.867859 
	C647.205750,650.246338 651.851746,652.178467 655.865112,655.767334 
	C658.371338,658.008423 660.450439,656.567505 661.714783,654.683716 
	C662.340759,653.751099 661.711670,651.341797 660.852417,650.202454 
	C659.707031,648.683838 657.912231,647.505005 656.176147,646.605103 
	C640.093201,638.267761 617.001282,646.314697 616.588623,669.690979 
	C616.393799,680.724731 620.729004,689.668030 631.062805,694.381958 
	C640.981628,698.906555 650.882629,698.349915 659.691406,691.273315 
	C664.412292,687.480835 663.927551,685.646179 658.088684,683.324402 
	C648.488831,690.619446 640.496155,691.971252 633.415649,687.497314 
	C626.214966,682.947266 623.065063,674.683228 624.924988,665.221558 
	C626.423218,657.599976 632.362854,652.260132 641.706421,650.867859 
M570.179932,375.508850 
	C586.522522,367.446533 603.841187,362.506134 622.406311,359.871246 
	C622.406311,356.093781 622.424377,352.789307 622.395081,349.485199 
	C622.386475,348.511597 622.243774,347.539154 622.117432,346.026947 
	C589.427246,351.391022 563.581787,368.111877 541.745056,391.973969 
	C551.003052,386.600464 560.260986,381.226959 570.179932,375.508850 
M427.228943,365.023987 
	C447.483551,370.203461 465.354980,380.504974 483.205902,390.917938 
	C461.784241,367.642395 436.011230,352.145721 404.368439,346.021851 
	C404.368439,351.100616 404.368439,355.351562 404.368439,359.641235 
	C411.895813,361.416473 419.164429,363.130707 427.228943,365.023987 
M531.725464,644.670105 
	C525.258057,644.486145 518.755859,644.646118 512.335754,643.995178 
	C508.172089,643.572998 507.490448,645.282715 507.511505,648.710999 
	C507.599365,663.010071 507.666473,677.310730 507.520905,691.608582 
	C507.484436,695.189575 509.069336,696.384033 512.242554,696.326172 
	C517.890808,696.223145 523.545898,696.226196 529.184692,695.930298 
	C542.359985,695.239014 551.889648,685.490967 552.672485,672.093445 
	C553.509033,657.779419 545.896118,647.463074 531.725464,644.670105 
M452.431580,354.925934 
	C467.343994,363.169556 480.888245,373.239899 493.097198,385.143280 
	C478.285156,361.155640 459.028534,342.216339 432.055023,330.605621 
	C432.055023,334.495087 432.298309,337.337891 431.995239,340.121246 
	C431.589935,343.843262 432.957214,345.803986 436.482391,347.221069 
	C441.720367,349.326691 446.691040,352.097229 452.431580,354.925934 
M580.865723,351.199219 
	C584.499939,349.548004 588.177307,347.982819 591.741699,346.192566 
	C592.797241,345.662445 594.231995,344.546631 594.296631,343.616119 
	C594.577759,339.569611 594.417297,335.492432 594.417297,331.163391 
	C571.280090,339.111847 546.261963,362.581421 535.990356,382.361420 
	C549.600037,370.441132 563.644409,359.156555 580.865723,351.199219 
M534.709595,384.252655 
	C534.556274,384.534882 534.402954,384.817108 534.249634,385.099335 
	C534.209839,385.081024 534.170044,385.062744 534.130249,385.044434 
	C534.289185,384.687775 534.448120,384.331146 534.709595,384.252655 
z"/>
<path fill="#E03959" opacity="1.000000" stroke="none" 
	d="
M444.136810,574.970825 
	C440.632629,573.996887 437.128448,573.022949 433.296570,571.516663 
	C432.926147,570.346313 432.883392,569.708435 433.259827,569.046936 
	C435.271271,568.880127 436.863525,568.736877 438.455780,568.593567 
	C438.381378,568.168396 438.306976,567.743225 438.232544,567.318054 
	C436.133148,567.764771 433.101074,563.807190 431.625763,569.065186 
	C427.460968,567.744629 423.692352,566.430725 419.890717,564.766724 
	C418.570892,564.299500 417.284088,564.182312 415.632751,564.058228 
	C413.504517,563.385193 411.740814,562.718933 409.993195,561.653076 
	C410.696655,560.227722 411.171417,558.612061 412.107086,558.274780 
	C417.042297,556.495667 422.046234,554.851074 427.128937,553.565613 
	C429.085571,553.070801 431.572998,553.064087 433.362335,553.860352 
	C436.886078,555.428528 439.203400,555.127075 441.337036,551.680542 
	C442.121216,550.413879 445.279816,548.984802 445.551331,549.281372 
	C448.920776,552.961914 452.542816,550.017273 456.268127,550.214050 
	C458.244812,551.590881 459.820953,553.161865 461.705841,553.760010 
	C462.736328,554.087036 464.242676,552.454956 465.615173,552.251953 
	C469.485016,551.679871 480.013153,557.763123 482.299591,561.147827 
	C483.522064,562.957458 485.529572,564.331543 487.393921,565.589172 
	C489.819550,567.225464 492.454926,568.550659 495.042908,570.354858 
	C497.055206,572.132507 499.024536,573.565002 500.995972,575.331665 
	C500.998169,576.111389 500.998322,576.556885 500.765533,577.222900 
	C502.082458,580.384033 503.445404,583.449402 505.281525,586.198914 
	C505.942261,587.188293 507.692474,587.694580 509.031830,587.929932 
	C511.117767,588.296448 513.535889,587.664062 515.357361,588.476746 
	C520.832214,590.919373 520.731995,587.339417 520.932007,583.827454 
	C520.932007,583.827454 520.997559,583.384460 521.433228,583.119751 
	C523.471924,580.755066 526.660339,579.683228 524.461792,575.617249 
	C523.283936,573.438843 523.357971,569.013062 524.835693,567.281982 
	C528.384460,563.124878 532.870605,559.617615 537.469482,556.595459 
	C538.921265,555.641418 541.930298,557.057251 544.226685,557.388489 
	C553.822266,553.576660 563.050171,559.741882 572.485657,560.912781 
	C572.548218,560.443420 572.610718,559.974121 572.673279,559.504822 
	C571.443970,558.565247 570.214661,557.625671 568.248596,556.122986 
	C570.309387,554.709656 571.879211,553.633057 573.400696,552.589600 
	C574.123779,553.472778 574.457642,553.694946 574.506836,553.968506 
	C575.237549,558.027832 589.307129,563.964111 592.012756,561.011719 
	C594.679810,558.101379 596.877441,556.988220 600.471863,559.129089 
	C603.085144,560.685547 606.014832,561.704224 608.728149,563.108093 
	C609.057861,563.278748 608.918823,564.355164 608.653503,565.160156 
	C602.206848,567.209412 596.103699,569.110413 589.665283,571.010620 
	C588.557068,571.340637 587.783997,571.671509 586.788391,572.274231 
	C579.714294,575.037170 572.862732,577.528381 565.695557,580.061523 
	C564.922180,580.729187 564.464417,581.354797 563.683716,582.133301 
	C559.908325,583.528259 556.455811,584.770264 552.668213,586.011841 
	C551.564270,586.346436 550.795471,586.681580 549.954041,587.361938 
	C549.450256,588.186646 549.109802,588.838013 548.574646,589.120239 
	C539.969543,593.658630 531.483887,598.466248 522.644958,602.497742 
	C519.066284,604.129883 515.819763,607.921692 511.062836,606.005188 
	C508.495575,604.970886 505.818268,604.144470 503.383636,602.858765 
	C496.710602,599.334961 490.233154,595.432922 483.502167,592.028748 
	C476.772308,588.625122 469.885834,585.512451 462.963104,582.514282 
	C456.761841,579.828552 450.417847,577.472351 444.136810,574.970825 
M590.493958,567.029480 
	C589.836060,567.245544 589.178223,567.461609 588.520325,567.677734 
	C588.601501,568.074036 588.682678,568.470337 588.763855,568.866638 
	C589.961914,568.664124 591.159912,568.461609 592.357971,568.259155 
	C591.966064,567.860168 591.574097,567.461182 590.493958,567.029480 
M583.522339,566.275513 
	C583.271362,566.011597 583.022766,565.745117 582.756592,565.497498 
	C582.749817,565.491211 582.550781,565.691345 582.441406,565.795227 
	C582.692688,566.059265 582.943970,566.323303 583.522339,566.275513 
z"/>
<path fill="#E5A03A" opacity="1.000000" stroke="none" 
	d="
M522.411560,422.058350 
	C522.971619,421.375641 523.531677,420.692932 524.730347,419.937561 
	C525.844482,419.160034 526.320007,418.455231 526.795532,417.750427 
	C526.795532,417.750427 526.888550,417.814758 527.114014,417.758026 
	C527.537292,417.392792 527.734985,417.084290 527.932678,416.775757 
	C530.461975,414.182953 532.823303,411.397095 535.546570,409.027161 
	C562.955811,385.174133 594.471191,370.703644 630.900513,367.578674 
	C632.024597,367.482239 633.164124,367.566498 635.006653,367.566498 
	C635.006653,378.639099 635.006653,389.385498 634.679321,400.901428 
	C634.110168,404.257843 633.868286,406.844727 633.666504,409.003113 
	C624.225403,409.003113 615.176880,408.703369 606.163574,409.135834 
	C601.969360,409.337067 597.858826,411.033813 593.680542,411.910461 
	C591.025452,412.467499 588.148621,412.321106 585.661621,413.259674 
	C578.393005,416.002625 571.255859,419.098053 564.095093,422.121338 
	C559.524475,424.051056 554.733276,425.651611 550.524353,428.198486 
	C544.474915,431.859161 538.881409,436.269897 533.061829,440.315155 
	C530.092041,442.379547 527.299622,443.314728 526.354004,438.793030 
	C524.447510,439.619934 522.867920,440.305054 521.288330,440.990173 
	C521.225159,436.275177 521.161987,431.560211 521.382324,426.188629 
	C521.914307,424.374146 522.162964,423.216248 522.411560,422.058350 
z"/>
<path fill="#E26B51" opacity="1.000000" stroke="none" 
	d="
M634.839355,444.020538 
	C634.882202,456.064117 634.925049,468.107727 634.658630,480.899567 
	C633.236694,485.017670 632.123962,488.387512 631.011230,491.757355 
	C630.529602,491.616150 630.047913,491.474915 629.566284,491.333679 
	C629.151428,489.750000 628.736633,488.166351 628.321777,486.582672 
	C627.580505,491.136566 624.621155,491.388062 621.237305,491.003784 
	C619.435181,490.799103 617.614807,490.718262 615.827148,490.429565 
	C606.281494,488.888000 597.154175,491.295502 588.069153,493.556641 
	C583.688538,494.646912 579.201660,496.041962 575.345947,498.296173 
	C571.762573,500.391113 568.697327,501.456207 564.902893,499.430847 
	C564.662109,499.302307 563.833374,500.275177 563.013489,500.955200 
	C565.226929,501.987457 567.011169,502.819550 568.795471,503.651672 
	C568.800964,504.363464 568.806458,505.075287 568.811951,505.787079 
	C558.887939,503.765930 550.310364,508.381836 541.088318,509.820953 
	C523.966125,511.279633 519.349915,508.143555 521.625732,489.603241 
	C522.706299,490.409149 523.391296,491.573303 524.062683,492.714417 
	C529.095276,490.375702 533.920715,488.432495 538.453125,485.953735 
	C544.546021,482.621582 550.081238,478.069489 556.437622,475.456116 
	C577.176636,466.929352 597.355042,456.573486 620.989929,457.774780 
	C632.477783,458.358643 634.008240,455.782349 634.010315,444.503510 
	C634.010315,444.337311 634.009949,444.171082 634.217163,444.008301 
	C634.424561,444.011719 634.839417,444.020538 634.839355,444.020538 
z"/>
<path fill="#E39044" opacity="1.000000" stroke="none" 
	d="
M634.922546,443.556305 
	C634.839417,444.020538 634.424561,444.011719 634.217041,443.548584 
	C634.007812,441.424194 634.186157,439.737396 633.954529,438.108856 
	C633.718079,436.445923 633.079102,434.840210 632.616333,433.209473 
	C631.043396,433.851746 629.470459,434.494049 627.897461,435.136353 
	C589.269958,433.688385 555.439392,447.301300 524.654724,468.896301 
	C523.257202,467.667664 522.323303,466.846619 521.389404,466.025513 
	C521.294739,457.988434 521.200073,449.951416 521.196838,441.452271 
	C522.867920,440.305054 524.447510,439.619934 526.354004,438.793030 
	C527.299622,443.314728 530.092041,442.379547 533.061829,440.315155 
	C538.881409,436.269897 544.474915,431.859161 550.524353,428.198486 
	C554.733276,425.651611 559.524475,424.051056 564.095093,422.121338 
	C571.255859,419.098053 578.393005,416.002625 585.661621,413.259674 
	C588.148621,412.321106 591.025452,412.467499 593.680542,411.910461 
	C597.858826,411.033813 601.969360,409.337067 606.163574,409.135834 
	C615.176880,408.703369 624.225403,409.003113 633.666504,409.003113 
	C633.868286,406.844727 634.110168,404.257843 634.594238,401.367432 
	C634.892883,415.073273 634.949280,429.082672 634.922546,443.556305 
z"/>
<path fill="#E05655" opacity="1.000000" stroke="none" 
	d="
M541.543335,509.901428 
	C550.310364,508.381836 558.887939,503.765930 568.811951,505.787079 
	C568.806458,505.075287 568.800964,504.363464 568.795471,503.651672 
	C567.011169,502.819550 565.226929,501.987457 563.013489,500.955200 
	C563.833374,500.275177 564.662109,499.302307 564.902893,499.430847 
	C568.697327,501.456207 571.762573,500.391113 575.345947,498.296173 
	C579.201660,496.041962 583.688538,494.646912 588.069153,493.556641 
	C597.154175,491.295502 606.281494,488.888000 615.827148,490.429565 
	C617.614807,490.718262 619.435181,490.799103 621.237305,491.003784 
	C624.621155,491.388062 627.580505,491.136566 628.321777,486.582672 
	C628.736633,488.166351 629.151428,489.750000 629.566284,491.333679 
	C630.047913,491.474915 630.529602,491.616150 631.011230,491.757355 
	C632.123962,488.387512 633.236694,485.017670 634.572998,481.366699 
	C634.867188,491.860687 635.041382,502.636536 634.965088,513.410645 
	C634.926514,518.857300 632.147766,520.875549 625.362793,522.951660 
	C611.295593,527.256042 597.366211,532.010559 582.708496,536.798950 
	C580.505188,538.753601 578.973511,540.489197 577.441833,542.224792 
	C577.325012,541.940918 577.208191,541.657043 577.091309,541.373230 
	C575.098145,542.243408 573.104980,543.113586 571.111816,543.983826 
	C570.087891,539.980530 567.233459,538.474548 563.384888,538.235291 
	C562.072205,538.153625 560.226440,538.340576 559.574463,537.585022 
	C557.988586,535.747009 556.027283,533.470764 555.928650,531.293518 
	C555.786804,528.163513 558.295898,526.620056 561.676758,526.518799 
	C569.563599,526.282593 572.361877,522.777954 570.943848,515.041138 
	C570.186279,510.907288 566.824219,510.172821 563.402161,510.098999 
	C556.270081,509.945099 549.133240,510.008026 541.543335,509.901428 
z"/>
<path fill="#E37F49" opacity="1.000000" stroke="none" 
	d="
M521.292175,466.483002 
	C522.323303,466.846619 523.257202,467.667664 524.654724,468.896301 
	C555.439392,447.301300 589.269958,433.688385 627.897461,435.136353 
	C629.470459,434.494049 631.043396,433.851746 632.616333,433.209473 
	C633.079102,434.840210 633.718079,436.445923 633.954529,438.108856 
	C634.186157,439.737396 634.007812,441.424194 634.009644,443.545166 
	C634.009949,444.171082 634.010315,444.337311 634.010315,444.503510 
	C634.008240,455.782349 632.477783,458.358643 620.989929,457.774780 
	C597.355042,456.573486 577.176636,466.929352 556.437622,475.456116 
	C550.081238,478.069489 544.546021,482.621582 538.453125,485.953735 
	C533.920715,488.432495 529.095276,490.375702 524.062683,492.714417 
	C523.391296,491.573303 522.706299,490.409149 521.719910,489.151001 
	C521.343933,481.684814 521.269470,474.312622 521.292175,466.483002 
z"/>
<path fill="#E14E57" opacity="1.000000" stroke="none" 
	d="
M495.000000,570.009766 
	C492.454926,568.550659 489.819550,567.225464 487.393921,565.589172 
	C485.529572,564.331543 483.522064,562.957458 482.299591,561.147827 
	C480.013153,557.763123 469.485016,551.679871 465.615173,552.251953 
	C464.242676,552.454956 462.736328,554.087036 461.705841,553.760010 
	C459.820953,553.161865 458.244812,551.590881 456.267731,549.879517 
	C455.985748,548.887634 455.975922,548.441895 456.032623,547.825928 
	C456.183380,547.186218 456.267639,546.716736 456.351929,546.247192 
	C445.025726,535.954529 430.863800,531.442322 416.718689,526.988403 
	C411.013611,525.192078 405.124084,523.984192 399.325653,522.480835 
	C394.817780,521.312012 391.257019,519.223145 391.490479,513.572205 
	C392.173950,513.199402 392.592377,513.096436 393.350708,513.059082 
	C394.822876,513.716553 395.955170,514.308350 397.692444,515.216492 
	C397.692444,510.072632 397.692444,505.900726 397.692444,501.728821 
	C398.821106,503.229736 399.112457,504.706787 398.959045,506.136139 
	C398.572144,509.741882 399.791687,511.549377 403.657959,511.019958 
	C405.132446,510.818054 406.960663,511.371002 408.077576,510.684692 
	C415.024902,506.415741 421.952820,510.569305 428.857452,510.571564 
	C432.233521,510.572693 435.790100,511.352234 438.949890,512.586304 
	C447.249878,515.828003 455.419861,519.416077 463.563293,523.042053 
	C476.967560,529.010498 491.010254,533.848145 501.996277,544.226196 
	C502.268524,544.483398 502.875854,544.385864 504.004883,544.555847 
	C504.004883,536.882507 504.004883,529.453491 504.008423,521.561523 
	C504.017090,517.416077 504.022186,513.733521 504.234192,510.050232 
	C504.441132,510.049530 504.854980,510.045288 504.854980,510.045288 
	C504.912964,526.408386 504.970978,542.771423 504.694305,559.918823 
	C504.240509,564.829163 504.065582,568.954651 504.025146,573.081421 
	C504.004059,575.237427 503.948425,577.188110 500.998474,577.002441 
	C500.998322,576.556885 500.998169,576.111389 500.998047,574.921814 
	C500.926880,572.637573 500.855652,571.097412 500.783325,569.533203 
	C498.489136,569.722229 496.744568,569.866028 495.000000,570.009766 
z"/>
<path fill="#E39841" opacity="1.000000" stroke="none" 
	d="
M391.319031,416.983521 
	C391.234344,408.320374 391.149689,399.657227 391.368927,390.726929 
	C393.330170,391.172424 396.292847,391.692352 396.431152,392.629272 
	C397.271912,398.324036 400.093567,398.250458 404.208130,396.076538 
	C404.860962,395.731628 405.845917,395.969482 406.673889,396.008911 
	C416.956818,396.498505 427.039368,396.223785 437.159637,400.428192 
	C444.910095,403.648071 452.705109,408.465240 461.844147,407.838623 
	C462.917114,407.765045 464.150848,408.246216 465.123718,408.798492 
	C470.753662,411.994537 476.237671,415.523041 483.143372,415.094391 
	C483.735596,415.057587 484.421112,415.425659 484.958221,415.769684 
	C490.073181,419.045868 495.165436,422.357422 500.592346,425.871246 
	C501.597626,424.666931 502.633759,423.425598 503.669891,422.184296 
	C504.163910,425.870361 504.657898,429.556458 504.782776,433.939392 
	C504.413635,441.316345 504.413635,447.996460 504.413635,454.676575 
	C503.718048,454.842865 503.022461,455.009186 502.326874,455.175507 
	C501.358795,454.065948 500.038452,453.108643 499.482056,451.821167 
	C496.703064,445.390442 491.359375,442.742859 485.061737,440.697693 
	C479.919128,439.027710 474.620422,436.868561 470.371216,433.637238 
	C463.442261,428.367889 455.863770,425.078979 447.584076,423.031189 
	C437.700165,420.586609 427.872528,417.828369 417.882965,415.929871 
	C412.077759,414.826630 405.726837,416.106873 400.138977,414.507050 
	C395.903595,413.294464 393.632446,413.854126 391.319031,416.983521 
z"/>
<path fill="#E5A03A" opacity="1.000000" stroke="none" 
	d="
M503.619629,421.901489 
	C502.633759,423.425598 501.597626,424.666931 500.592346,425.871246 
	C495.165436,422.357422 490.073181,419.045868 484.958221,415.769684 
	C484.421112,415.425659 483.735596,415.057587 483.143372,415.094391 
	C476.237671,415.523041 470.753662,411.994537 465.123718,408.798492 
	C464.150848,408.246216 462.917114,407.765045 461.844147,407.838623 
	C452.705109,408.465240 444.910095,403.648071 437.159637,400.428192 
	C427.039368,396.223785 416.956818,396.498505 406.673889,396.008911 
	C405.845917,395.969482 404.860962,395.731628 404.208130,396.076538 
	C400.093567,398.250458 397.271912,398.324036 396.431152,392.629272 
	C396.292847,391.692352 393.330170,391.172424 391.457642,390.271362 
	C391.160645,384.090271 391.347870,378.077911 390.910767,372.111267 
	C390.568756,367.443237 392.765350,366.483765 396.537048,367.359039 
	C409.961914,370.474457 423.650330,372.819855 436.700714,377.098450 
	C456.496979,383.588715 473.980957,394.614716 490.046478,408.713440 
	C490.555908,409.498169 490.858582,409.711639 491.161224,409.925110 
	C491.161224,409.925110 491.075989,409.868530 491.112579,410.185364 
	C491.844879,410.936829 492.540588,411.371490 493.236298,411.806122 
	C493.236298,411.806122 493.133392,411.868286 493.152832,411.993591 
	C493.432892,412.144104 493.693512,412.169342 493.954163,412.194580 
	C494.542206,412.668640 495.130219,413.142700 495.903900,414.172485 
	C496.513306,415.120972 496.937042,415.513824 497.360779,415.906677 
	C497.639038,415.924042 497.851501,416.051239 498.130981,416.758606 
	C498.578339,417.448181 498.892883,417.667450 499.207397,417.886719 
	C499.207397,417.886719 499.120392,417.803864 499.151398,418.142944 
	C499.924011,418.941711 500.665619,419.401367 501.407227,419.861023 
	C502.127930,420.446899 502.848633,421.032776 503.619629,421.901489 
z"/>
<path fill="#E37F49" opacity="1.000000" stroke="none" 
	d="
M504.900574,460.048920 
	C504.946533,471.708130 504.992523,483.367340 504.709564,495.187439 
	C504.119232,493.087585 503.857880,490.826813 503.627411,488.833252 
	C501.624939,488.055115 499.831421,487.638916 498.335602,486.731842 
	C487.874542,480.388214 477.541718,473.830627 467.018494,467.593567 
	C463.506714,465.512146 459.595642,464.077362 455.802643,462.502258 
	C442.729034,457.073151 430.103333,450.210602 415.208649,450.900757 
	C410.973267,451.097076 406.686646,450.048004 402.415466,449.658417 
	C399.273041,449.371796 396.117493,449.229004 392.964661,448.674500 
	C392.449371,447.253754 391.937225,446.180634 391.425079,445.107513 
	C391.355652,440.055359 391.286224,435.003204 391.603333,429.578674 
	C392.677643,430.009308 393.365417,430.812286 394.053741,431.615875 
	C395.043243,430.311707 395.876312,429.213715 397.194763,427.476013 
	C399.060669,433.032562 403.162659,431.831970 406.825470,432.025543 
	C412.948486,432.349152 419.332977,431.851074 425.123260,433.450989 
	C435.821503,436.407043 446.300537,440.302673 456.623535,444.426117 
	C465.529083,447.983368 474.465759,451.768707 482.684601,456.640961 
	C489.107544,460.448517 496.704437,463.559906 499.601349,471.700897 
	C499.973083,472.745575 501.639771,473.329437 503.319092,474.584625 
	C503.921082,469.051697 504.410858,464.550293 504.900574,460.048920 
z"/>
<path fill="#E39044" opacity="1.000000" stroke="none" 
	d="
M504.983093,459.581757 
	C504.410858,464.550293 503.921082,469.051697 503.319092,474.584625 
	C501.639771,473.329437 499.973083,472.745575 499.601349,471.700897 
	C496.704437,463.559906 489.107544,460.448517 482.684601,456.640961 
	C474.465759,451.768707 465.529083,447.983368 456.623535,444.426117 
	C446.300537,440.302673 435.821503,436.407043 425.123260,433.450989 
	C419.332977,431.851074 412.948486,432.349152 406.825470,432.025543 
	C403.162659,431.831970 399.060669,433.032562 397.194763,427.476013 
	C395.876312,429.213715 395.043243,430.311707 394.053741,431.615875 
	C393.365417,430.812286 392.677643,430.009308 391.694885,429.122772 
	C391.314453,425.324463 391.228973,421.609741 391.231262,417.439270 
	C393.632446,413.854126 395.903595,413.294464 400.138977,414.507050 
	C405.726837,416.106873 412.077759,414.826630 417.882965,415.929871 
	C427.872528,417.828369 437.700165,420.586609 447.584076,423.031189 
	C455.863770,425.078979 463.442261,428.367889 470.371216,433.637238 
	C474.620422,436.868561 479.919128,439.027710 485.061737,440.697693 
	C491.359375,442.742859 496.703064,445.390442 499.482056,451.821167 
	C500.038452,453.108643 501.358795,454.065948 502.326874,455.175507 
	C503.022461,455.009186 503.718048,454.842865 504.413635,454.676575 
	C504.413635,447.996460 504.413635,441.316345 504.687866,434.326691 
	C504.996613,442.382965 505.031097,450.748779 504.983093,459.581757 
z"/>
<path fill="#E3754D" opacity="1.000000" stroke="none" 
	d="
M392.967773,449.022095 
	C396.117493,449.229004 399.273041,449.371796 402.415466,449.658417 
	C406.686646,450.048004 410.973267,451.097076 415.208649,450.900757 
	C430.103333,450.210602 442.729034,457.073151 455.802643,462.502258 
	C459.595642,464.077362 463.506714,465.512146 467.018494,467.593567 
	C477.541718,473.830627 487.874542,480.388214 498.335602,486.731842 
	C499.831421,487.638916 501.624939,488.055115 503.627411,488.833252 
	C503.857880,490.826813 504.119232,493.087585 504.632324,495.647156 
	C504.932861,500.337463 504.981720,504.728973 504.942780,509.582886 
	C504.854980,510.045288 504.441132,510.049530 504.225586,509.619690 
	C503.728271,507.601837 504.002167,505.390900 503.056458,504.547241 
	C500.604279,502.359741 497.743347,500.529510 494.815491,498.996033 
	C487.254669,495.035980 479.581421,491.289124 471.926392,487.511230 
	C469.844879,486.484009 467.454651,485.962067 465.570251,484.675079 
	C452.723846,475.901489 438.147491,471.577606 423.280243,467.998688 
	C413.334198,465.604462 403.179047,465.107880 392.991516,464.541168 
	C392.981171,459.056549 392.974457,454.039337 392.967773,449.022095 
z"/>
<path fill="#D8984B" opacity="1.000000" stroke="none" 
	d="
M387.120605,675.058716 
	C384.964905,670.244141 382.934326,665.790649 380.903748,661.337097 
	C380.497253,661.415833 380.090759,661.494507 379.684265,661.573242 
	C379.684265,672.889038 379.684265,684.204773 379.684265,695.342712 
	C372.331940,697.126892 371.742615,696.837646 371.672211,690.180969 
	C371.527832,676.533936 371.511108,662.883118 371.705505,649.237671 
	C371.729828,647.530640 373.155121,644.566650 374.265564,644.398987 
	C377.220490,643.952759 380.808319,642.704590 382.632507,647.261414 
	C386.711426,657.450684 391.186523,667.481262 395.504333,677.574829 
	C396.267700,679.359314 397.050842,681.135437 398.229858,683.846802 
	C399.357971,681.694275 400.120026,680.496826 400.642670,679.202637 
	C404.877472,668.716187 409.432617,658.337585 413.117584,647.659546 
	C414.973480,642.281799 418.856201,644.136414 422.028015,643.977173 
	C425.755615,643.790100 424.639923,647.170288 424.662659,649.225037 
	C424.817352,663.205750 424.817108,677.188049 424.904816,691.169617 
	C424.922241,693.951660 425.150848,696.490601 421.014221,696.486389 
	C416.698853,696.481995 417.303375,693.591187 417.270386,691.016235 
	C417.170135,683.194214 417.160645,675.371094 417.083160,667.548706 
	C417.065796,665.796692 416.915192,664.046021 415.840515,661.973450 
	C415.198517,663.152405 414.442169,664.284180 413.932800,665.517883 
	C410.315582,674.278992 406.886475,683.121887 403.049591,691.784729 
	C402.284729,693.511658 400.139740,695.418091 398.411499,695.657715 
	C397.199615,695.825745 395.073273,693.562073 394.295410,691.934937 
	C391.716187,686.539551 389.562561,680.940613 387.120605,675.058716 
z"/>
<path fill="#D8984B" opacity="1.000000" stroke="none" 
	d="
M572.769531,694.331299 
	C555.065430,686.468628 554.340759,657.377197 570.328491,647.369263 
	C585.040283,638.159973 607.357849,646.361633 609.932312,663.181946 
	C611.424438,672.931213 611.528259,683.241089 602.558044,690.604492 
	C593.553772,697.995911 583.657654,698.751587 572.769531,694.331299 
M575.576965,652.736450 
	C566.933105,658.638062 564.036255,668.853882 568.344177,679.255005 
	C571.223389,686.206543 576.633484,689.922546 584.202393,690.195496 
	C591.775085,690.468567 597.425415,687.114746 600.845581,680.436462 
	C604.693237,672.923462 603.627563,662.298767 598.694702,656.873230 
	C592.350525,649.895508 584.644897,649.397949 575.576965,652.736450 
z"/>
<path fill="#B8467C" opacity="1.000000" stroke="none" 
	d="
M658.797607,505.816010 
	C658.891357,514.780457 659.333252,523.758179 658.992126,532.706116 
	C658.552490,544.236633 651.248230,551.207031 641.411133,555.361633 
	C633.496704,558.704224 625.081848,560.861755 616.686768,563.306641 
	C618.011047,562.073425 619.537659,561.078613 621.467163,560.068481 
	C631.903015,558.040405 641.523743,555.153503 649.683838,547.415894 
	C645.902405,544.725952 642.150879,542.956360 639.659241,540.091125 
	C634.979431,534.709778 631.084839,530.092896 622.763733,534.467163 
	C618.563843,536.674927 612.970764,536.232422 607.612427,536.995972 
	C603.168640,537.715942 599.120178,538.428162 595.071655,539.140320 
	C606.627869,536.155029 618.204895,533.247009 629.727112,530.135742 
	C633.042236,529.240601 636.435303,528.165710 639.375305,526.455750 
	C644.237915,523.627563 643.651978,518.387695 644.341553,512.947021 
	C644.894348,504.600891 645.137573,496.995636 645.383179,489.317139 
	C650.581970,489.967010 654.677307,490.478943 658.772583,490.990875 
	C658.816833,492.744446 658.861084,494.498047 658.620361,496.984558 
	C658.489380,500.416992 658.643494,503.116516 658.797607,505.816010 
z"/>
<path fill="#D8984B" opacity="1.000000" stroke="none" 
	d="
M330.405945,661.789551 
	C330.559296,663.826843 330.719635,665.390137 331.046356,668.574890 
	C335.843597,663.435181 339.637299,659.428833 343.360260,655.357788 
	C345.267883,653.271851 347.279114,651.224060 348.838867,648.888733 
	C351.980652,644.184875 356.213318,643.240967 362.164185,644.826660 
	C361.006104,646.399658 360.131775,647.830139 359.024567,649.048950 
	C354.325867,654.221558 349.676880,659.449036 344.762756,664.411865 
	C342.482544,666.714661 342.639618,668.285217 344.584442,670.713196 
	C350.302399,677.851562 355.759521,685.199219 361.294006,692.483704 
	C361.858582,693.226807 362.256012,694.096985 362.768890,694.972900 
	C356.022736,696.966370 353.733826,696.105347 349.656189,690.305542 
	C346.882385,686.360229 344.236877,682.308044 341.211639,678.564087 
	C339.882690,676.919434 336.445343,674.590332 336.188751,674.841675 
	C333.965240,677.019897 331.431274,679.475220 330.596222,682.319580 
	C329.650452,685.540894 330.276367,689.251770 330.385071,692.744690 
	C330.459259,695.130188 329.924164,696.666260 327.114319,696.410889 
	C324.698792,696.191345 322.396667,696.089355 322.523712,692.644165 
	C322.664673,688.820435 322.560944,684.987488 322.550568,681.158508 
	C322.523041,671.002502 322.487244,660.846497 322.457367,650.690491 
	C322.451172,648.584778 322.456451,646.479065 322.456451,644.470276 
	C330.238678,643.596069 330.511322,643.799866 330.525696,650.327637 
	C330.533752,653.990234 330.453430,657.652893 330.405945,661.789551 
z"/>
<path fill="#DD3D5E" opacity="1.000000" stroke="none" 
	d="
M621.064270,560.083862 
	C619.537659,561.078613 618.011047,562.073425 616.319702,563.305298 
	C614.730103,564.083862 613.305298,564.625427 611.405457,565.039062 
	C610.286011,564.944763 609.641479,564.978333 608.997009,565.011841 
	C608.918823,564.355164 609.057861,563.278748 608.728149,563.108093 
	C606.014832,561.704224 603.085144,560.685547 600.471863,559.129089 
	C596.877441,556.988220 594.679810,558.101379 592.012756,561.011719 
	C589.307129,563.964111 575.237549,558.027832 574.506836,553.968506 
	C574.457642,553.694946 574.123779,553.472778 573.400696,552.589600 
	C571.879211,553.633057 570.309387,554.709656 568.248596,556.122986 
	C570.214661,557.625671 571.443970,558.565247 572.673279,559.504822 
	C572.610718,559.974121 572.548218,560.443420 572.485657,560.912781 
	C563.050171,559.741882 553.822266,553.576660 544.226685,557.388489 
	C541.930298,557.057251 538.921265,555.641418 537.469482,556.595459 
	C532.870605,559.617615 528.384460,563.124878 524.835693,567.281982 
	C523.357971,569.013062 523.283936,573.438843 524.461792,575.617249 
	C526.660339,579.683228 523.471924,580.755066 521.552368,582.930176 
	C521.322815,579.679565 521.453857,576.354370 521.488586,573.028076 
	C521.593933,562.925842 529.342590,555.074097 539.508972,554.966919 
	C546.667114,554.891479 553.827087,555.027466 560.986267,555.020447 
	C568.620300,555.012939 570.917114,552.644531 571.053589,544.399597 
	C573.104980,543.113586 575.098145,542.243408 577.091309,541.373230 
	C577.208191,541.657043 577.325012,541.940918 577.441833,542.224792 
	C578.973511,540.489197 580.505188,538.753601 582.387695,536.981750 
	C582.560425,538.532593 582.382324,540.119629 582.431946,542.262939 
	C586.092834,541.818481 589.525940,540.817810 592.959106,539.817139 
	C593.409302,539.601746 593.859436,539.386353 594.690613,539.155640 
	C599.120178,538.428162 603.168640,537.715942 607.649475,537.352417 
	C609.160522,540.252258 608.544800,541.480225 605.603760,542.162964 
	C602.294434,542.931335 602.220703,544.949768 604.938477,546.933716 
	C609.311646,550.125977 613.761230,553.216797 618.063110,556.501587 
	C619.271057,557.423889 620.075012,558.875244 621.064270,560.083862 
z"/>
<path fill="#D8984B" opacity="1.000000" stroke="none" 
	d="
M641.276001,650.888306 
	C632.362854,652.260132 626.423218,657.599976 624.924988,665.221558 
	C623.065063,674.683228 626.214966,682.947266 633.415649,687.497314 
	C640.496155,691.971252 648.488831,690.619446 658.088684,683.324402 
	C663.927551,685.646179 664.412292,687.480835 659.691406,691.273315 
	C650.882629,698.349915 640.981628,698.906555 631.062805,694.381958 
	C620.729004,689.668030 616.393799,680.724731 616.588623,669.690979 
	C617.001282,646.314697 640.093201,638.267761 656.176147,646.605103 
	C657.912231,647.505005 659.707031,648.683838 660.852417,650.202454 
	C661.711670,651.341797 662.340759,653.751099 661.714783,654.683716 
	C660.450439,656.567505 658.371338,658.008423 655.865112,655.767334 
	C651.851746,652.178467 647.205750,650.246338 641.276001,650.888306 
z"/>
<path fill="#DD3D5E" opacity="1.000000" stroke="none" 
	d="
M455.966125,547.996094 
	C455.975922,548.441895 455.985748,548.887634 455.995972,549.667969 
	C452.542816,550.017273 448.920776,552.961914 445.551331,549.281372 
	C445.279816,548.984802 442.121216,550.413879 441.337036,551.680542 
	C439.203400,555.127075 436.886078,555.428528 433.362335,553.860352 
	C431.572998,553.064087 429.085571,553.070801 427.128937,553.565613 
	C422.046234,554.851074 417.042297,556.495667 412.107086,558.274780 
	C411.171417,558.612061 410.696655,560.227722 409.615479,561.603455 
	C401.421600,559.710449 393.621429,557.467468 385.821289,555.224487 
	C385.821289,555.224487 385.969055,555.096558 385.783051,554.866333 
	C383.392334,553.102661 381.187622,551.569275 378.999847,549.656616 
	C380.349945,548.740784 381.649994,547.905884 383.025787,547.753235 
	C384.353027,547.606018 385.914734,548.679626 387.102112,548.320312 
	C392.049469,546.823059 396.889801,544.973877 401.783173,543.293884 
	C402.395111,543.083923 403.141205,542.911804 403.737762,543.064270 
	C410.347076,544.752258 415.118164,541.923584 419.438721,536.973877 
	C423.536255,537.674988 427.245575,538.355896 430.954895,539.036743 
	C431.440582,539.098206 431.926270,539.159668 432.839355,539.719971 
	C440.833221,542.811157 448.399689,545.403625 455.966125,547.996094 
z"/>
<path fill="#4587C2" opacity="1.000000" stroke="none" 
	d="
M569.849487,375.681152 
	C560.260986,381.226959 551.003052,386.600464 541.745056,391.973969 
	C563.581787,368.111877 589.427246,351.391022 622.117432,346.026947 
	C622.243774,347.539154 622.386475,348.511597 622.395081,349.485199 
	C622.424377,352.789307 622.406311,356.093781 622.406311,359.871246 
	C603.841187,362.506134 586.522522,367.446533 569.849487,375.681152 
z"/>
<path fill="#4587C2" opacity="1.000000" stroke="none" 
	d="
M426.830994,364.934448 
	C419.164429,363.130707 411.895813,361.416473 404.368439,359.641235 
	C404.368439,355.351562 404.368439,351.100616 404.368439,346.021851 
	C436.011230,352.145721 461.784241,367.642395 483.205902,390.917938 
	C465.354980,380.504974 447.483551,370.203461 426.830994,364.934448 
z"/>
<path fill="#B8467C" opacity="1.000000" stroke="none" 
	d="
M372.970490,546.046448 
	C368.945923,541.718201 367.034027,536.539734 367.024048,530.689026 
	C367.005371,519.733948 367.085938,508.778778 367.555725,497.244537 
	C368.317230,492.948730 368.905365,489.231781 368.901459,485.515472 
	C368.898041,482.280670 370.747711,481.475555 373.254761,481.378265 
	C375.325256,481.297913 377.411957,481.634277 380.350739,481.848694 
	C380.582825,488.840729 380.767700,495.928101 381.075684,503.010101 
	C381.217377,506.268768 381.600311,509.516907 381.873840,512.769836 
	C382.630524,524.355530 385.431091,527.504333 397.000214,530.089233 
	C403.458801,531.532349 409.879272,533.145996 416.384033,535.119873 
	C409.393494,534.116089 402.316315,532.763245 395.286865,531.195984 
	C391.955780,530.453308 388.734894,528.701233 385.426666,528.597229 
	C383.861450,528.547974 382.227295,532.437439 380.589630,532.464905 
	C378.884796,532.493286 377.138062,530.017639 375.409668,528.636902 
	C375.113037,528.964233 374.816437,529.291504 374.519806,529.618835 
	C375.049225,532.068176 375.578644,534.517578 376.163208,537.222046 
	C373.826630,536.823364 372.169678,536.540588 369.921478,536.156982 
	C371.078796,539.910767 372.024658,542.978577 372.970490,546.046448 
M381.421051,528.481873 
	C381.421051,528.481873 381.523132,528.422852 381.421051,528.481873 
z"/>
<path fill="#D8984B" opacity="1.000000" stroke="none" 
	d="
M532.147339,644.760681 
	C545.896118,647.463074 553.509033,657.779419 552.672485,672.093445 
	C551.889648,685.490967 542.359985,695.239014 529.184692,695.930298 
	C523.545898,696.226196 517.890808,696.223145 512.242554,696.326172 
	C509.069336,696.384033 507.484436,695.189575 507.520905,691.608582 
	C507.666473,677.310730 507.599365,663.010071 507.511505,648.710999 
	C507.490448,645.282715 508.172089,643.572998 512.335754,643.995178 
	C518.755859,644.646118 525.258057,644.486145 532.147339,644.760681 
M515.068970,652.939697 
	C515.068970,664.804932 515.068970,676.670166 515.068970,689.475159 
	C522.062622,688.919800 527.919739,689.462341 533.106873,687.849976 
	C547.479553,683.382263 548.100098,662.231384 538.627563,654.056519 
	C540.140198,655.155945 542.101440,655.951477 543.087708,657.407471 
	C547.344238,663.690796 546.411560,670.680176 545.245483,677.618713 
	C544.979370,679.202148 544.518616,680.752747 543.901245,683.356995 
	C545.535339,682.346130 546.185608,682.179932 546.291443,681.842834 
	C547.844910,676.893066 549.345032,671.926147 550.799072,666.946106 
	C550.976379,666.338562 550.933044,665.604126 550.789185,664.974854 
	C549.001038,657.155029 542.013855,647.320312 532.361816,646.225403 
	C525.783386,645.479248 519.052429,645.942383 512.398132,646.142944 
	C511.377869,646.173706 509.539459,647.707031 509.538879,648.546448 
	C509.532166,658.349854 509.714355,668.157166 510.109741,677.952759 
	C510.164154,679.300964 511.643005,680.591614 512.462402,681.908936 
	C512.974915,681.658020 513.487488,681.407104 514.000000,681.156189 
	C514.000000,675.691101 513.885925,670.222778 514.036560,664.761902 
	C514.153931,660.508850 514.600647,656.264832 515.068970,652.939697 
z"/>
<path fill="#7D5997" opacity="1.000000" stroke="none" 
	d="
M658.839844,490.527466 
	C654.677307,490.478943 650.581970,489.967010 645.383179,489.317139 
	C645.137573,496.995636 644.894348,504.600891 644.403503,512.511169 
	C644.109131,488.869263 644.062378,464.922394 644.313782,440.757507 
	C645.323486,441.304565 645.993408,442.680542 646.753662,442.732452 
	C650.746582,443.005096 654.762390,442.942841 658.770203,442.996887 
	C658.815796,458.685944 658.861389,474.375000 658.839844,490.527466 
z"/>
<path fill="#7D5997" opacity="1.000000" stroke="none" 
	d="
M381.932983,512.327515 
	C381.600311,509.516907 381.217377,506.268768 381.075684,503.010101 
	C380.767700,495.928101 380.582825,488.840729 380.350739,481.848694 
	C377.411957,481.634277 375.325256,481.297913 373.254761,481.378265 
	C370.747711,481.475555 368.898041,482.280670 368.901459,485.515472 
	C368.905365,489.231781 368.317230,492.948730 367.625885,496.773285 
	C367.204620,478.890381 367.143738,460.899567 367.475494,442.358765 
	C368.571411,440.636139 369.274689,439.463562 369.946960,438.342682 
	C377.733154,441.215363 377.723785,441.211639 380.709991,433.692688 
	C380.945679,433.099274 381.436829,432.607330 381.809265,432.068207 
	C381.870209,458.673859 381.931183,485.279480 381.932983,512.327515 
z"/>
<path fill="#4587C2" opacity="1.000000" stroke="none" 
	d="
M452.103516,354.755371 
	C446.691040,352.097229 441.720367,349.326691 436.482391,347.221069 
	C432.957214,345.803986 431.589935,343.843262 431.995239,340.121246 
	C432.298309,337.337891 432.055023,334.495087 432.055023,330.605621 
	C459.028534,342.216339 478.285156,361.155640 493.097198,385.143280 
	C480.888245,373.239899 467.343994,363.169556 452.103516,354.755371 
z"/>
<path fill="#D8984B" opacity="1.000000" stroke="none" 
	d="
M447.738892,658.048096 
	C449.055267,654.466125 450.025879,650.695618 451.833740,647.381775 
	C452.739014,645.722473 455.205627,643.906250 456.903198,643.965393 
	C458.676392,644.027222 461.226715,645.888550 461.964996,647.598816 
	C466.446777,657.980591 470.519409,668.539490 474.704803,679.048767 
	C476.846802,684.427185 478.939270,689.825256 481.055328,695.217651 
	C474.935699,697.515869 473.062073,696.920654 471.428436,691.436584 
	C469.882812,686.248169 467.277710,683.384460 461.476868,684.345703 
	C459.369720,684.694946 457.124817,684.657104 454.999634,684.372009 
	C447.982483,683.430603 442.761810,684.708008 441.078766,692.899963 
	C440.123993,697.547302 436.059357,696.012207 431.594757,695.520691 
	C436.891815,683.021973 442.010376,670.944458 447.485107,659.055664 
	C446.206390,664.074280 444.652832,668.933716 442.906616,673.722961 
	C441.821869,676.697998 441.966370,679.039917 446.128052,681.241333 
	C444.605896,675.375244 444.740143,670.690247 450.338104,668.736450 
	C449.336365,671.845398 448.395447,674.594543 447.379059,677.564209 
	C453.800812,677.564209 459.665039,677.564209 465.993561,677.564209 
	C464.457520,673.383240 463.102631,669.695251 462.080994,666.135742 
	C463.828644,668.635254 465.168823,671.055542 466.693481,673.353394 
	C467.313873,674.288391 468.335022,674.957520 469.173889,675.747620 
	C469.458679,674.528259 470.304688,673.098816 469.939392,672.122742 
	C467.051758,664.406921 464.039856,656.731689 460.785889,649.164490 
	C460.211548,647.828857 458.267792,646.165405 457.067749,646.249084 
	C455.590393,646.352051 453.859894,647.867249 452.896179,649.235168 
	C450.942902,652.007812 449.432129,655.092224 447.738892,658.048096 
M471.101685,683.244629 
	C471.176117,683.289612 471.250549,683.334534 471.324982,683.379517 
	C471.216644,683.252991 471.108307,683.126526 470.879089,682.325867 
	C469.916107,680.989319 468.953094,679.652771 467.990082,678.316223 
	C467.583282,678.716431 467.176514,679.116638 466.769714,679.516846 
	C468.179810,680.677856 469.589905,681.838928 471.101685,683.244629 
z"/>
<path fill="#4587C2" opacity="1.000000" stroke="none" 
	d="
M580.530701,351.368835 
	C563.644409,359.156555 549.600037,370.441132 535.990356,382.361420 
	C546.261963,362.581421 571.280090,339.111847 594.417297,331.163391 
	C594.417297,335.492432 594.577759,339.569611 594.296631,343.616119 
	C594.231995,344.546631 592.797241,345.662445 591.741699,346.192566 
	C588.177307,347.982819 584.499939,349.548004 580.530701,351.368835 
z"/>
<path fill="#6A61A4" opacity="1.000000" stroke="none" 
	d="
M658.835022,442.656860 
	C654.762390,442.942841 650.746582,443.005096 646.753662,442.732452 
	C645.993408,442.680542 645.323486,441.304565 644.375732,440.295807 
	C644.139648,424.808594 644.139648,409.565063 644.139648,394.276642 
	C651.807556,395.830780 659.081055,405.112579 659.082214,413.224365 
	C659.083374,421.193970 658.986389,429.163605 658.667236,437.795898 
	C658.529724,439.286469 658.657410,440.114319 658.785156,440.942169 
	C658.823425,441.400391 658.861633,441.858643 658.835022,442.656860 
z"/>
<path fill="#D84067" opacity="1.000000" stroke="none" 
	d="
M372.980621,546.029175 
	C372.024658,542.978577 371.078796,539.910767 369.921478,536.156982 
	C372.169678,536.540588 373.826630,536.823364 376.163208,537.222046 
	C375.578644,534.517578 375.049225,532.068176 374.519806,529.618835 
	C374.816437,529.291504 375.113037,528.964233 375.409668,528.636902 
	C377.138062,530.017639 378.884796,532.493286 380.589630,532.464905 
	C382.227295,532.437439 383.861450,528.547974 385.426666,528.597229 
	C388.734894,528.701233 391.955780,530.453308 395.286865,531.195984 
	C402.316315,532.763245 409.393494,534.116089 416.694733,535.308228 
	C417.432129,535.110352 417.925873,535.161133 418.725067,535.621948 
	C419.031403,536.339355 419.038086,536.646545 419.050537,536.953613 
	C415.118164,541.923584 410.347076,544.752258 403.737762,543.064270 
	C403.141205,542.911804 402.395111,543.083923 401.783173,543.293884 
	C396.889801,544.973877 392.049469,546.823059 387.102112,548.320312 
	C385.914734,548.679626 384.353027,547.606018 383.025787,547.753235 
	C381.649994,547.905884 380.349945,548.740784 378.664734,549.737793 
	C378.107025,550.301514 377.901398,550.404785 377.695770,550.507996 
	C377.695770,550.507996 377.697479,550.458191 377.643250,550.114258 
	C377.032318,549.534119 376.475647,549.297791 375.919006,549.061462 
	C375.919006,549.061462 375.982849,549.007690 375.866882,548.808594 
	C375.467194,548.420654 375.183441,548.231812 374.899689,548.042908 
	C374.899689,548.042908 374.980652,548.029175 374.934509,547.732788 
	C374.244354,546.965576 373.600342,546.494751 372.956360,546.023987 
	C372.956360,546.023987 372.990753,546.011841 372.980621,546.029175 
z"/>
<path fill="#6A61A4" opacity="1.000000" stroke="none" 
	d="
M381.874695,431.597778 
	C381.436829,432.607330 380.945679,433.099274 380.709991,433.692688 
	C377.723785,441.211639 377.733154,441.215363 369.946960,438.342682 
	C369.274689,439.463562 368.571411,440.636139 367.543884,441.893372 
	C367.132446,432.170074 366.511688,422.329102 367.116119,412.563965 
	C367.662994,403.728668 373.738525,398.199463 381.940094,393.021118 
	C381.940094,406.437897 381.940094,418.782623 381.874695,431.597778 
z"/>
<path fill="#E39841" opacity="1.000000" stroke="none" 
	d="
M671.164490,652.659302 
	C674.682312,645.715027 682.282471,642.648926 691.985291,644.084045 
	C697.984619,644.971497 703.008240,647.148376 705.773376,652.990051 
	C702.913696,656.564697 700.795166,657.370483 696.791016,654.044434 
	C694.016785,651.739990 689.240112,651.846252 684.619019,650.904785 
	C682.943848,651.272339 682.007812,651.610596 681.071777,651.948914 
	C680.374268,652.467163 679.676819,652.985413 678.310913,653.863220 
	C674.505188,659.018372 675.092896,662.944702 679.928162,664.840454 
	C684.568604,666.659851 689.569031,667.561096 694.411255,668.865784 
	C694.772400,668.919312 695.133545,668.972839 695.820312,669.467407 
	C698.710815,672.900330 701.275696,675.892212 703.840637,678.884033 
	C703.396423,679.235168 702.952209,679.586304 702.507996,679.937500 
	C700.136414,677.997864 698.052673,675.221680 695.335327,674.286621 
	C688.995667,672.104858 682.351379,670.808411 675.830444,669.153320 
	C675.830444,669.153320 675.909851,669.087585 675.813354,668.791992 
	C671.999451,663.849731 669.855286,658.750854 671.164490,652.659302 
z"/>
<path fill="#D8984B" opacity="1.000000" stroke="none" 
	d="
M675.969727,669.464905 
	C682.351379,670.808411 688.995667,672.104858 695.335327,674.286621 
	C698.052673,675.221680 700.136414,677.997864 702.507996,679.937500 
	C702.952209,679.586304 703.396423,679.235168 703.840637,678.884033 
	C701.275696,675.892212 698.710815,672.900330 696.062988,669.599854 
	C702.863586,671.827820 706.394592,676.093933 706.257507,681.708435 
	C706.062866,689.681335 702.805908,694.185181 694.958679,696.052917 
	C686.594666,698.043579 678.417725,697.743103 671.387268,691.769165 
	C669.231995,689.937805 667.360168,688.193848 669.885559,685.159302 
	C672.447693,682.080688 674.185913,683.572693 676.365784,685.658447 
	C681.275452,690.356201 687.247681,691.706665 693.373169,688.921387 
	C695.630249,687.895020 698.205994,684.680786 698.224243,682.444702 
	C698.242126,680.278259 695.594543,677.227478 693.346802,676.094971 
	C689.389526,674.101074 684.823608,673.337036 680.557922,671.921570 
	C679.008301,671.407410 677.588135,670.502869 675.969727,669.464905 
M700.243286,684.789795 
	C700.712097,686.116394 701.180969,687.442932 701.649841,688.769531 
	C702.178894,688.713440 702.707947,688.657410 703.237000,688.601318 
	C703.489624,686.637695 703.742310,684.674133 704.164062,681.395935 
	C702.203369,682.887878 701.375854,683.517578 700.243286,684.789795 
z"/>
<path fill="#D84067" opacity="1.000000" stroke="none" 
	d="
M608.653503,565.160156 
	C609.641479,564.978333 610.286011,564.944763 611.028198,565.089539 
	C603.550293,568.106689 595.775391,570.509644 588.436035,573.865356 
	C565.491272,584.356262 542.626831,595.033691 519.931946,606.052246 
	C514.880859,608.504700 511.158478,609.105713 505.799744,606.311584 
	C486.235962,596.110596 466.273987,586.673584 446.476624,576.919189 
	C445.780792,576.576294 445.239471,575.919861 444.381470,575.190186 
	C450.417847,577.472351 456.761841,579.828552 462.963104,582.514282 
	C469.885834,585.512451 476.772308,588.625122 483.502167,592.028748 
	C490.233154,595.432922 496.710602,599.334961 503.383636,602.858765 
	C505.818268,604.144470 508.495575,604.970886 511.062836,606.005188 
	C515.819763,607.921692 519.066284,604.129883 522.644958,602.497742 
	C531.483887,598.466248 539.969543,593.658630 548.574646,589.120239 
	C549.109802,588.838013 549.450256,588.186646 550.286194,587.355286 
	C551.461792,586.673096 552.232605,586.342712 553.003357,586.012329 
	C556.455811,584.770264 559.908325,583.528259 563.998169,582.091797 
	C565.094055,581.271423 565.552612,580.645447 566.011169,580.019531 
	C572.862732,577.528381 579.714294,575.037170 587.122070,572.270691 
	C588.452393,571.667358 589.226440,571.339417 590.000488,571.011475 
	C596.103699,569.110413 602.206848,567.209412 608.653503,565.160156 
z"/>
<path fill="#E39841" opacity="1.000000" stroke="none" 
	d="
M450.398926,668.376709 
	C444.740143,670.690247 444.605896,675.375244 446.128052,681.241333 
	C441.966370,679.039917 441.821869,676.697998 442.906616,673.722961 
	C444.652832,668.933716 446.206390,664.074280 447.742065,658.817810 
	C447.642761,658.391113 447.605164,658.194092 447.672058,658.121094 
	C449.432129,655.092224 450.942902,652.007812 452.896179,649.235168 
	C453.859894,647.867249 455.590393,646.352051 457.067749,646.249084 
	C458.267792,646.165405 460.211548,647.828857 460.785889,649.164490 
	C464.039856,656.731689 467.051758,664.406921 469.939392,672.122742 
	C470.304688,673.098816 469.458679,674.528259 469.173889,675.747620 
	C468.335022,674.957520 467.313873,674.288391 466.693481,673.353394 
	C465.168823,671.055542 463.828644,668.635254 462.043488,666.017029 
	C461.672729,665.769836 461.828979,665.574585 461.868103,665.175659 
	C461.230164,663.534363 460.553131,662.291931 459.914276,661.023804 
	C459.952484,660.997986 459.917358,661.083191 459.942932,660.730408 
	C459.562347,659.616211 459.156189,658.854797 458.796997,658.095947 
	C458.843964,658.098572 458.799103,658.181274 458.855499,657.796997 
	C458.153809,656.667419 457.395752,655.922119 456.522156,655.392212 
	C455.977356,656.081665 455.548065,656.555786 454.851654,657.211792 
	C454.434113,657.792114 454.283691,658.190613 454.234161,658.657715 
	C454.335052,658.726257 454.247864,658.954102 453.889618,659.120239 
	C453.078369,660.708557 452.625397,662.130798 452.247803,663.650024 
	C452.323212,663.746887 452.186768,663.951050 451.853394,664.109741 
	C451.092468,665.568848 450.664917,666.869202 450.298645,668.205078 
	C450.359924,668.240601 450.398926,668.376709 450.398926,668.376709 
z"/>
<path fill="#E05655" opacity="1.000000" stroke="none" 
	d="
M392.964661,448.674500 
	C392.974457,454.039337 392.981171,459.056549 392.988678,465.008453 
	C392.993958,471.965729 392.998444,477.988373 393.001404,484.478943 
	C393.003479,494.295746 393.007141,503.644592 393.010773,512.993408 
	C392.592377,513.096436 392.173950,513.199402 391.582520,513.207764 
	C391.354767,490.744537 391.299988,468.375916 391.335144,445.557404 
	C391.937225,446.180634 392.449371,447.253754 392.964661,448.674500 
z"/>
<path fill="#B8467C" opacity="1.000000" stroke="none" 
	d="
M386.044128,555.491882 
	C393.621429,557.467468 401.421600,559.710449 409.599426,562.003052 
	C411.740814,562.718933 413.504517,563.385193 415.948029,564.194275 
	C417.726501,564.597046 418.825134,564.856934 419.923767,565.116821 
	C423.692352,566.430725 427.460968,567.744629 431.830322,569.066772 
	C432.431091,569.074951 432.840668,569.070496 432.840637,569.070496 
	C432.883392,569.708435 432.926147,570.346313 432.955658,571.300842 
	C417.383942,566.331421 401.825470,561.045349 386.044128,555.491882 
z"/>
<path fill="#DD3D5E" opacity="1.000000" stroke="none" 
	d="
M500.765533,577.222900 
	C503.948425,577.188110 504.004059,575.237427 504.025146,573.081421 
	C504.065582,568.954651 504.240509,564.829163 504.612976,560.385742 
	C504.928711,565.674988 505.021118,571.281677 505.046539,576.888611 
	C505.085449,585.475281 509.546509,588.630432 517.761780,585.773804 
	C518.665833,585.459412 519.435669,584.758972 520.599854,584.032532 
	C520.731995,587.339417 520.832214,590.919373 515.357361,588.476746 
	C513.535889,587.664062 511.117767,588.296448 509.031830,587.929932 
	C507.692474,587.694580 505.942261,587.188293 505.281525,586.198914 
	C503.445404,583.449402 502.082458,580.384033 500.765533,577.222900 
z"/>
<path fill="#D8984B" opacity="1.000000" stroke="none" 
	d="
M694.146362,668.610657 
	C689.569031,667.561096 684.568604,666.659851 679.928162,664.840454 
	C675.092896,662.944702 674.505188,659.018372 677.949341,654.106934 
	C676.675232,661.227600 677.814514,663.117798 685.035217,665.403320 
	C687.998596,666.341309 690.933594,667.368713 694.146362,668.610657 
z"/>
<path fill="#B8467C" opacity="1.000000" stroke="none" 
	d="
M456.032623,547.825928 
	C448.399689,545.403625 440.833221,542.811157 433.144592,539.927368 
	C440.363922,541.797119 447.705383,543.958313 455.699402,546.183350 
	C456.267639,546.716736 456.183380,547.186218 456.032623,547.825928 
z"/>
<path fill="#D8984B" opacity="1.000000" stroke="none" 
	d="
M670.896606,652.844055 
	C669.855286,658.750854 671.999451,663.849731 675.809692,668.843384 
	C670.038025,667.049927 667.880798,660.438965 670.896606,652.844055 
z"/>
<path fill="#B8467C" opacity="1.000000" stroke="none" 
	d="
M419.438721,536.973877 
	C419.038086,536.646545 419.031403,536.339355 419.051086,535.804016 
	C422.840271,536.591553 426.608887,537.607117 430.666199,538.829712 
	C427.245575,538.355896 423.536255,537.674988 419.438721,536.973877 
z"/>
<path fill="#B8467C" opacity="1.000000" stroke="none" 
	d="
M592.616699,539.775024 
	C589.525940,540.817810 586.092834,541.818481 582.452637,542.672241 
	C585.588501,541.594421 588.931396,540.663635 592.616699,539.775024 
z"/>
<path fill="#B8467C" opacity="1.000000" stroke="none" 
	d="
M377.876831,550.767151 
	C377.901398,550.404785 378.107025,550.301514 378.647797,550.117065 
	C381.187622,551.569275 383.392334,553.102661 385.728027,554.947083 
	C383.258606,553.847473 380.658234,552.436890 377.876831,550.767151 
z"/>
<path fill="#7D5997" opacity="1.000000" stroke="none" 
	d="
M658.860840,505.390015 
	C658.643494,503.116516 658.489380,500.416992 658.561157,497.420044 
	C658.832703,499.736389 658.878418,502.350220 658.860840,505.390015 
z"/>
<path fill="#E39044" opacity="1.000000" stroke="none" 
	d="
M522.107544,422.261719 
	C522.162964,423.216248 521.914307,424.374146 521.467773,425.724335 
	C521.447693,424.766083 521.625610,423.615570 522.107544,422.261719 
z"/>
<path fill="#D8984B" opacity="1.000000" stroke="none" 
	d="
M681.317017,652.067261 
	C682.007812,651.610596 682.943848,651.272339 684.143494,650.894287 
	C683.458801,651.298218 682.510559,651.741943 681.317017,652.067261 
z"/>
<path fill="#E39841" opacity="1.000000" stroke="none" 
	d="
M493.160645,411.504272 
	C492.540588,411.371490 491.844879,410.936829 491.148560,410.149048 
	C491.793671,410.264709 492.439331,410.733551 493.160645,411.504272 
z"/>
<path fill="#4587C2" opacity="1.000000" stroke="none" 
	d="
M534.658325,384.113586 
	C534.448120,384.331146 534.289185,384.687775 534.130249,385.044434 
	C534.170044,385.062744 534.209839,385.081024 534.249634,385.099335 
	C534.402954,384.817108 534.556274,384.534882 534.658325,384.113586 
z"/>
<path fill="#E39841" opacity="1.000000" stroke="none" 
	d="
M501.291626,419.554169 
	C500.665619,419.401367 499.924011,418.941711 499.200562,418.108398 
	C499.871124,418.238953 500.523560,418.743134 501.291626,419.554169 
z"/>
<path fill="#E39044" opacity="1.000000" stroke="none" 
	d="
M526.485107,417.824280 
	C526.320007,418.455231 525.844482,419.160034 524.998901,419.866394 
	C525.144165,419.211304 525.659424,418.554718 526.485107,417.824280 
z"/>
<path fill="#7D5997" opacity="1.000000" stroke="none" 
	d="
M658.855164,440.586609 
	C658.657410,440.114319 658.529724,439.286469 658.600220,438.264648 
	C658.840759,438.790802 658.882996,439.510956 658.855164,440.586609 
z"/>
<path fill="#B8467C" opacity="1.000000" stroke="none" 
	d="
M373.053711,546.304443 
	C373.600342,546.494751 374.244354,546.965576 374.911499,547.766724 
	C374.340149,547.593079 373.745636,547.088928 373.053711,546.304443 
z"/>
<path fill="#E39841" opacity="1.000000" stroke="none" 
	d="
M497.283905,415.618073 
	C496.937042,415.513824 496.513306,415.120972 496.046234,414.424866 
	C496.404266,414.524231 496.805634,414.926849 497.283905,415.618073 
z"/>
<path fill="#B8467C" opacity="1.000000" stroke="none" 
	d="
M376.063538,549.315430 
	C376.475647,549.297791 377.032318,549.534119 377.638550,550.089783 
	C377.194733,550.129272 376.701385,549.849304 376.063538,549.315430 
z"/>
<path fill="#E39841" opacity="1.000000" stroke="none" 
	d="
M491.083130,409.649170 
	C490.858582,409.711639 490.555908,409.498169 490.157104,409.016663 
	C490.375641,408.956848 490.690338,409.165039 491.083130,409.649170 
z"/>
<path fill="#E39841" opacity="1.000000" stroke="none" 
	d="
M493.795074,412.019165 
	C493.693512,412.169342 493.432892,412.144104 493.171600,411.936462 
	C493.170959,411.754089 493.635986,411.843781 493.795074,412.019165 
z"/>
<path fill="#E39841" opacity="1.000000" stroke="none" 
	d="
M499.144806,417.594910 
	C498.892883,417.667450 498.578339,417.448181 498.181427,416.943665 
	C498.426758,416.873291 498.754486,417.088196 499.144806,417.594910 
z"/>
<path fill="#B8467C" opacity="1.000000" stroke="none" 
	d="
M374.990021,548.293579 
	C375.183441,548.231812 375.467194,548.420654 375.854614,548.848511 
	C375.665649,548.906372 375.372986,548.725342 374.990021,548.293579 
z"/>
<path fill="#E39044" opacity="1.000000" stroke="none" 
	d="
M527.659241,416.866333 
	C527.734985,417.084290 527.537292,417.392792 527.073730,417.797729 
	C527.000610,417.581726 527.193237,417.269318 527.659241,416.866333 
z"/>
<path fill="#DD3D5E" opacity="1.000000" stroke="none" 
	d="
M495.042908,570.354858 
	C496.744568,569.866028 498.489136,569.722229 500.783325,569.533203 
	C500.855652,571.097412 500.926880,572.637573 500.995972,574.587646 
	C499.024536,573.565002 497.055206,572.132507 495.042908,570.354858 
z"/>
<path fill="#DD3D5E" opacity="1.000000" stroke="none" 
	d="
M433.259827,569.046936 
	C432.840668,569.070496 432.431091,569.074951 432.226532,569.073364 
	C433.101074,563.807190 436.133148,567.764771 438.232544,567.318054 
	C438.306976,567.743225 438.381378,568.168396 438.455780,568.593567 
	C436.863525,568.736877 435.271271,568.880127 433.259827,569.046936 
z"/>
<path fill="#DD3D5E" opacity="1.000000" stroke="none" 
	d="
M590.838074,567.045837 
	C591.574097,567.461182 591.966064,567.860168 592.357971,568.259155 
	C591.159912,568.461609 589.961914,568.664124 588.763855,568.866638 
	C588.682678,568.470337 588.601501,568.074036 588.520325,567.677734 
	C589.178223,567.461609 589.836060,567.245544 590.838074,567.045837 
z"/>
<path fill="#DD3D5E" opacity="1.000000" stroke="none" 
	d="
M419.890717,564.766724 
	C418.825134,564.856934 417.726501,564.597046 416.312592,564.201172 
	C417.284088,564.182312 418.570892,564.299500 419.890717,564.766724 
z"/>
<path fill="#DD3D5E" opacity="1.000000" stroke="none" 
	d="
M565.695557,580.061523 
	C565.552612,580.645447 565.094055,581.271423 564.321045,581.938904 
	C564.464417,581.354797 564.922180,580.729187 565.695557,580.061523 
z"/>
<path fill="#DD3D5E" opacity="1.000000" stroke="none" 
	d="
M583.358765,566.431458 
	C582.943970,566.323303 582.692688,566.059265 582.441406,565.795227 
	C582.550781,565.691345 582.749817,565.491211 582.756592,565.497498 
	C583.022766,565.745117 583.271362,566.011597 583.358765,566.431458 
z"/>
<path fill="#DD3D5E" opacity="1.000000" stroke="none" 
	d="
M552.668213,586.011841 
	C552.232605,586.342712 551.461792,586.673096 550.358887,587.010132 
	C550.795471,586.681580 551.564270,586.346436 552.668213,586.011841 
z"/>
<path fill="#DD3D5E" opacity="1.000000" stroke="none" 
	d="
M589.665283,571.010559 
	C589.226440,571.339417 588.452393,571.667358 587.344666,571.998901 
	C587.783997,571.671509 588.557068,571.340637 589.665283,571.010559 
z"/>
<path fill="#E45C54" opacity="1.000000" stroke="none" 
	d="
M393.350708,513.059082 
	C393.007141,503.644592 393.003479,494.295746 393.384277,484.482819 
	C399.291565,488.044800 405.691132,486.604767 411.831635,487.079620 
	C417.884735,487.547760 424.128510,487.896698 429.858612,489.679779 
	C440.039124,492.847656 450.058777,496.681824 459.844391,500.931122 
	C471.819122,506.130890 483.489655,512.032349 495.278503,517.658142 
	C498.213440,519.058716 501.097473,520.566101 504.004883,522.024414 
	C504.004883,529.453491 504.004883,536.882507 504.004883,544.555847 
	C502.875854,544.385864 502.268524,544.483398 501.996277,544.226196 
	C491.010254,533.848145 476.967560,529.010498 463.563293,523.042053 
	C455.419861,519.416077 447.249878,515.828003 438.949890,512.586304 
	C435.790100,511.352234 432.233521,510.572693 428.857452,510.571564 
	C421.952820,510.569305 415.024902,506.415741 408.077576,510.684692 
	C406.960663,511.371002 405.132446,510.818054 403.657959,511.019958 
	C399.791687,511.549377 398.572144,509.741882 398.959045,506.136139 
	C399.112457,504.706787 398.821106,503.229736 397.692444,501.728821 
	C397.692444,505.900726 397.692444,510.072632 397.692444,515.216492 
	C395.955170,514.308350 394.822876,513.716553 393.350708,513.059082 
z"/>
<path fill="#E26B51" opacity="1.000000" stroke="none" 
	d="
M504.008423,521.561523 
	C501.097473,520.566101 498.213440,519.058716 495.278503,517.658142 
	C483.489655,512.032349 471.819122,506.130890 459.844391,500.931122 
	C450.058777,496.681824 440.039124,492.847656 429.858612,489.679779 
	C424.128510,487.896698 417.884735,487.547760 411.831635,487.079620 
	C405.691132,486.604767 399.291565,488.044800 393.385834,484.014832 
	C392.998444,477.988373 392.993958,471.965729 392.992310,465.475830 
	C403.179047,465.107880 413.334198,465.604462 423.280243,467.998688 
	C438.147491,471.577606 452.723846,475.901489 465.570251,484.675079 
	C467.454651,485.962067 469.844879,486.484009 471.926392,487.511230 
	C479.581421,491.289124 487.254669,495.035980 494.815491,498.996033 
	C497.743347,500.529510 500.604279,502.359741 503.056458,504.547241 
	C504.002167,505.390900 503.728271,507.601837 504.018677,509.620392 
	C504.022186,513.733521 504.017090,517.416077 504.008423,521.561523 
z"/>
<path fill="#EDECEC" opacity="1.000000" stroke="none" 
	d="
M575.924683,652.557678 
	C584.644897,649.397949 592.350525,649.895508 598.694702,656.873230 
	C603.627563,662.298767 604.693237,672.923462 600.845581,680.436462 
	C597.425415,687.114746 591.775085,690.468567 584.202393,690.195496 
	C576.633484,689.922546 571.223389,686.206543 568.344177,679.255005 
	C564.036255,668.853882 566.933105,658.638062 575.924683,652.557678 
z"/>
<path fill="#D84067" opacity="1.000000" stroke="none" 
	d="
M621.467163,560.068481 
	C620.075012,558.875244 619.271057,557.423889 618.063110,556.501587 
	C613.761230,553.216797 609.311646,550.125977 604.938477,546.933716 
	C602.220703,544.949768 602.294434,542.931335 605.603760,542.162964 
	C608.544800,541.480225 609.160522,540.252258 608.044678,537.344727 
	C612.970764,536.232422 618.563843,536.674927 622.763733,534.467163 
	C631.084839,530.092896 634.979431,534.709778 639.659241,540.091125 
	C642.150879,542.956360 645.902405,544.725952 649.683838,547.415894 
	C641.523743,555.153503 631.903015,558.040405 621.467163,560.068481 
z"/>
<path fill="#D84067" opacity="1.000000" stroke="none" 
	d="
M381.472107,528.452393 
	C381.523132,528.422852 381.421051,528.481873 381.472107,528.452393 
z"/>
<path fill="#EDECEC" opacity="1.000000" stroke="none" 
	d="
M537.864563,654.127441 
	C548.100098,662.231384 547.479553,683.382263 533.106873,687.849976 
	C527.919739,689.462341 522.062622,688.919800 515.068970,689.475159 
	C515.068970,676.670166 515.068970,664.804932 515.148315,652.265747 
	C515.483643,651.343445 515.739746,651.095093 516.459351,650.907593 
	C522.920288,651.390869 528.917786,651.813232 534.912598,652.189758 
	C534.909912,652.143860 534.828552,652.186707 534.997742,652.445679 
	C535.751343,652.873962 536.335815,653.043213 536.930908,653.155945 
	C536.941589,653.099426 536.826599,653.102600 536.922424,653.358765 
	C537.328796,653.784729 537.639343,653.954468 537.927612,654.094360 
	C537.905396,654.064453 537.864563,654.127441 537.864563,654.127441 
z"/>
<path fill="#E39841" opacity="1.000000" stroke="none" 
	d="
M515.995850,650.846802 
	C515.739746,651.095093 515.483643,651.343445 515.064331,651.804321 
	C514.600647,656.264832 514.153931,660.508850 514.036560,664.761902 
	C513.885925,670.222778 514.000000,675.691101 514.000000,681.156189 
	C513.487488,681.407104 512.974915,681.658020 512.462402,681.908936 
	C511.643005,680.591614 510.164154,679.300964 510.109741,677.952759 
	C509.714355,668.157166 509.532166,658.349854 509.538879,648.546448 
	C509.539459,647.707031 511.377869,646.173706 512.398132,646.142944 
	C519.052429,645.942383 525.783386,645.479248 532.361816,646.225403 
	C542.013855,647.320312 549.001038,657.155029 550.789185,664.974854 
	C550.933044,665.604126 550.976379,666.338562 550.799072,666.946106 
	C549.345032,671.926147 547.844910,676.893066 546.291443,681.842834 
	C546.185608,682.179932 545.535339,682.346130 543.901245,683.356995 
	C544.518616,680.752747 544.979370,679.202148 545.245483,677.618713 
	C546.411560,670.680176 547.344238,663.690796 543.087708,657.407471 
	C542.101440,655.951477 540.140198,655.155945 538.246094,654.091980 
	C537.864563,654.127441 537.905396,654.064453 537.819214,653.848267 
	C537.430908,653.455627 537.128723,653.279114 536.826599,653.102600 
	C536.826599,653.102600 536.941589,653.099426 536.783691,652.867004 
	C536.026733,652.485291 535.427612,652.335999 534.828552,652.186707 
	C534.828552,652.186707 534.909912,652.143860 534.719849,651.841797 
	C528.351868,651.308716 522.173828,651.077759 515.995850,650.846802 
z"/>
<path fill="#EDECEC" opacity="1.000000" stroke="none" 
	d="
M452.186768,663.951050 
	C452.186768,663.951050 452.323212,663.746887 452.532410,663.405396 
	C453.243683,661.693970 453.745789,660.324036 454.247864,658.954102 
	C454.247864,658.954102 454.335052,658.726257 454.500793,658.472534 
	C454.817291,657.822510 454.968048,657.426270 455.118805,657.029968 
	C455.548065,656.555786 455.977356,656.081665 456.618530,655.693787 
	C457.486694,656.580505 458.142883,657.380859 458.799103,658.181274 
	C458.799103,658.181274 458.843964,658.098572 458.781586,658.435364 
	C459.118591,659.542480 459.517975,660.312866 459.917358,661.083191 
	C459.917358,661.083191 459.952484,660.997986 459.915710,661.383179 
	C460.528961,663.037170 461.178955,664.305847 461.828979,665.574585 
	C461.828979,665.574585 461.672729,665.769836 461.710205,665.888550 
	C463.102631,669.695251 464.457520,673.383240 465.993561,677.564209 
	C459.665039,677.564209 453.800812,677.564209 447.379059,677.564209 
	C448.395447,674.594543 449.336365,671.845398 450.338104,668.736450 
	C450.398926,668.376709 450.359924,668.240601 450.586365,668.026855 
	C451.270782,666.525818 451.728790,665.238403 452.186768,663.951050 
z"/>
<path fill="#E39841" opacity="1.000000" stroke="none" 
	d="
M470.939545,682.662964 
	C469.589905,681.838928 468.179810,680.677856 466.769714,679.516846 
	C467.176514,679.116638 467.583282,678.716431 467.990082,678.316223 
	C468.953094,679.652771 469.916107,680.989319 470.939545,682.662964 
z"/>
<path fill="#E39841" opacity="1.000000" stroke="none" 
	d="
M471.050842,683.122314 
	C471.108307,683.126526 471.216644,683.252991 471.324982,683.379517 
	C471.250549,683.334534 471.176117,683.289612 471.050842,683.122314 
z"/>
<path fill="#E39841" opacity="1.000000" stroke="none" 
	d="
M700.395813,684.468506 
	C701.375854,683.517578 702.203369,682.887878 704.164062,681.395935 
	C703.742310,684.674133 703.489624,686.637695 703.237000,688.601318 
	C702.707947,688.657410 702.178894,688.713440 701.649841,688.769531 
	C701.180969,687.442932 700.712097,686.116394 700.395813,684.468506 
z"/>
<path fill="#D8984B" opacity="1.000000" stroke="none" 
	d="
M453.889648,659.120239 
	C453.745789,660.324036 453.243683,661.693970 452.456970,663.308472 
	C452.625397,662.130798 453.078369,660.708557 453.889648,659.120239 
z"/>
<path fill="#D8984B" opacity="1.000000" stroke="none" 
	d="
M461.868103,665.175659 
	C461.178955,664.305847 460.528961,663.037170 459.877502,661.408997 
	C460.553131,662.291931 461.230164,663.534363 461.868103,665.175659 
z"/>
<path fill="#D8984B" opacity="1.000000" stroke="none" 
	d="
M451.853394,664.109741 
	C451.728790,665.238403 451.270782,666.525818 450.525085,667.991394 
	C450.664917,666.869202 451.092468,665.568848 451.853394,664.109741 
z"/>
<path fill="#D8984B" opacity="1.000000" stroke="none" 
	d="
M458.855499,657.796997 
	C458.142883,657.380859 457.486694,656.580505 456.734070,655.478516 
	C457.395752,655.922119 458.153809,656.667419 458.855499,657.796997 
z"/>
<path fill="#D8984B" opacity="1.000000" stroke="none" 
	d="
M459.942932,660.730408 
	C459.517975,660.312866 459.118591,659.542480 458.734619,658.432739 
	C459.156189,658.854797 459.562347,659.616211 459.942932,660.730408 
z"/>
<path fill="#D8984B" opacity="1.000000" stroke="none" 
	d="
M454.851654,657.211792 
	C454.968048,657.426270 454.817291,657.822510 454.399902,658.403992 
	C454.283691,658.190613 454.434113,657.792114 454.851654,657.211792 
z"/>
<path fill="#D8984B" opacity="1.000000" stroke="none" 
	d="
M516.459351,650.907593 
	C522.173828,651.077759 528.351868,651.308716 534.722534,651.887695 
	C528.917786,651.813232 522.920288,651.390869 516.459351,650.907593 
z"/>
<path fill="#D8984B" opacity="1.000000" stroke="none" 
	d="
M534.997742,652.445679 
	C535.427612,652.335999 536.026733,652.485291 536.773010,652.923523 
	C536.335815,653.043213 535.751343,652.873962 534.997742,652.445679 
z"/>
<path fill="#D8984B" opacity="1.000000" stroke="none" 
	d="
M536.922424,653.358765 
	C537.128723,653.279114 537.430908,653.455627 537.841431,653.878174 
	C537.639343,653.954468 537.328796,653.784729 536.922424,653.358765 
z"/>
</svg>