<svg width="163" height="39" viewBox="0 0 163 39" fill="none" xmlns="http://www.w3.org/2000/svg">
<path d="M2.48078 36.1533V15.6975H10.9154C15.2249 15.6975 18.1026 18.476 18.1026 22.6862V22.7146C18.1026 26.9248 15.2249 29.7033 10.9154 29.7033H6.76191V36.1533H2.48078ZM9.86643 19.0855H6.76191V26.3578H9.86643C12.3189 26.3578 13.7648 25.0536 13.7648 22.7287V22.7004C13.7648 20.3755 12.3189 19.0855 9.86643 19.0855ZM26.4535 36.1533V19.2273H20.3153V15.6975H36.8728V19.2273H30.7346V36.1533H26.4535ZM40.1061 36.1533V15.6975H44.3873V36.1533H40.1061ZM53.7588 36.1533V19.2273H47.6206V15.6975H64.1781V19.2273H58.0399V36.1533H53.7588ZM83.2472 36.6778C77.1657 36.6778 73.4374 32.581 73.4374 25.9183V25.89C73.4374 19.3265 77.1941 15.173 83.1479 15.173C87.9819 15.173 91.5117 17.9515 92.1213 22.0341L92.1496 22.1759H87.8969L87.8685 22.0341C87.2873 20.007 85.5437 18.802 83.1479 18.802C79.845 18.802 77.8036 21.4954 77.8036 25.8474V25.8758C77.8036 30.3128 79.9442 33.0488 83.318 33.0488C86.1249 33.0488 88.0528 31.3335 88.1379 28.7535L88.152 28.3707H83.7291V25.252H92.3197V27.8462C92.3197 33.2756 88.8325 36.6778 83.2472 36.6778ZM95.6098 36.1533V14.5776H99.7492V36.1533H95.6098ZM110.411 36.4794C105.605 36.4794 102.713 33.4315 102.713 28.3566V28.3282C102.713 23.2958 105.648 20.2054 110.411 20.2054C115.174 20.2054 118.108 23.2816 118.108 28.3282V28.3566C118.108 33.4457 115.216 36.4794 110.411 36.4794ZM110.411 33.2331C112.608 33.2331 113.87 31.4327 113.87 28.3566V28.3282C113.87 25.2804 112.594 23.4517 110.411 23.4517C108.213 23.4517 106.952 25.2804 106.952 28.3282V28.3566C106.952 31.4327 108.199 33.2331 110.411 33.2331ZM130.145 36.3943C127.933 36.3943 126.275 35.4162 125.467 33.7292H125.212V36.1533H121.072V14.5776H125.212V23.0406H125.467C126.261 21.3395 128.004 20.2905 130.145 20.2905C134.1 20.2905 136.481 23.3099 136.481 28.3282V28.3566C136.481 33.3465 134.043 36.3943 130.145 36.3943ZM128.727 32.9637C130.924 32.9637 132.271 31.2343 132.271 28.3566V28.3282C132.271 25.4789 130.91 23.721 128.727 23.721C126.558 23.721 125.169 25.4789 125.169 28.3424V28.3707C125.169 31.2343 126.544 32.9637 128.727 32.9637ZM143.542 36.3943C140.565 36.3943 138.453 34.5514 138.453 31.7163V31.6879C138.453 28.8811 140.622 27.2367 144.506 27.0099L148.277 26.783V25.493C148.277 24.1463 147.356 23.3808 145.654 23.3808C144.166 23.3808 143.216 23.9053 142.89 24.8268L142.862 24.8835H139.034L139.049 24.7559C139.375 22.0199 141.955 20.2054 145.881 20.2054C150.021 20.2054 152.36 22.1617 152.36 25.493V36.1533H148.277V34.0836H148.022C147.228 35.5296 145.584 36.3943 143.542 36.3943ZM142.493 31.4611C142.493 32.6519 143.5 33.3748 144.932 33.3748C146.845 33.3748 148.277 32.1132 148.277 30.4688V29.3205L145.13 29.519C143.358 29.6324 142.493 30.2987 142.493 31.4327V31.4611ZM156.004 36.1533V14.5776H160.144V36.1533H156.004Z" fill="#DB0B0B"/>
<path d="M48.9919 0.84668C48.5081 5.56442 48.0242 10.0402 47.5403 14.637C47.4194 16.2096 47.2984 16.2096 48.871 16.2096H52.9839C53.1049 16.5725 52.8629 16.5725 52.742 16.6935C50.9274 18.0241 49.1129 19.4757 47.2984 20.8064C46.8145 21.0483 46.5726 21.5322 46.5726 22.016C46.3307 24.5564 46.0887 27.0967 45.9678 29.637C45.9678 29.8789 46.0887 30.2418 45.8468 30.2418C45.4839 30.3628 45.3629 29.9999 45.2419 29.8789C44.0323 28.6693 42.8226 27.3386 41.7339 26.1289C41.25 25.5241 40.8871 25.5241 40.2823 25.887C37.2581 27.7015 34.2339 29.516 31.2097 31.2096C30.9678 31.4515 30.6048 31.5725 30.2419 31.5725C31.3307 29.8789 32.2984 28.3064 33.3871 26.6128C34.4758 24.7983 35.6855 22.9838 36.7742 21.2902C37.1371 20.9273 37.1371 20.3225 36.7742 19.8386C35.9274 18.8709 35.0807 17.7822 34.2339 16.8144C34.1129 16.6935 33.871 16.4515 33.9919 16.2096C34.1129 15.9676 34.4758 16.0886 34.5968 16.0886C36.1694 16.0886 37.7419 16.0886 39.1936 16.0886C39.7984 16.0886 40.2823 15.8467 40.5242 15.3628C43.0645 10.766 45.7258 6.16926 48.3871 1.57248C48.5081 1.33055 48.75 1.08862 48.9919 0.84668Z" fill="#FFE600"/>
</svg>
